<svg xmlns="http://www.w3.org/2000/svg" xmlns:xlink="http://www.w3.org/1999/xlink" width="783.949951171875" height="635" viewBox="0 0 783.949951171875 635" fill="none">
<g opacity="0.1">
<rect  x="554.949951171875" y="0" width="43" height="43" rx="10"    fill="#FFFFFF" >
</rect>
</g>
<g filter="url(#filter_1)">
<rect  x="160.0966796875" y="95.00277709960938" width="366" height="397" transform="rotate(0.3100000079929992 160.0966796875 95.00277709960938)" rx="20"    fill="#FEFEFE" >
</rect>
</g>
<rect  x="183.96826171875" y="128.00241088867188" width="318.48" height="325" transform="rotate(0.3100000079929992 183.96826171875 128.00241088867188)" rx="10"    fill="#FFFFFF" >
</rect>
<path    stroke="#defff6" stroke-width="1"  stroke-linecap="square"  d="M225.653 393.382L482.389 394.771">
</path>
<path    stroke="#defff6" stroke-width="1"  stroke-linecap="square"  d="M225.853 356.432L482.589 357.821">
</path>
<path    stroke="#defff6" stroke-width="1"  stroke-linecap="square"  d="M226.053 319.483L482.789 320.872">
</path>
<path    stroke="#defff6" stroke-width="1"  stroke-linecap="square"  d="M226.253 282.543L482.989 283.933">
</path>
<path    stroke="#defff6" stroke-width="1"  stroke-linecap="square"  d="M226.453 245.594L483.189 246.983">
</path>
<path   fill="#03bf8a"  d="M225.286 347.902L248.608 329.976C252.691 326.838 258.404 326.952 262.358 330.25L272.819 338.975C277.65 343.005 285.02 340.961 287.085 335.018L310.008 269.056C313.389 259.327 327.089 259.164 330.7 268.81L343.588 303.232C346.189 310.179 355.605 311.174 359.6 304.923L362.757 299.983C367.314 292.854 377.877 293.323 381.783 300.829L387.799 312.386C388.988 314.67 391.097 316.336 393.595 316.961L409.792 321.02C411.717 321.502 413.476 322.497 414.882 323.898L437.44 346.373C439.048 347.975 441.203 348.91 443.471 348.991L469.922 349.933L469.851 351.932L443.4 350.99C440.627 350.891 437.994 349.748 436.028 347.789L413.47 325.314C412.32 324.168 410.881 323.355 409.305 322.96L393.109 318.901C390.056 318.137 387.478 316.101 386.025 313.31L380.009 301.752C376.813 295.611 368.17 295.227 364.442 301.06L361.285 306C356.403 313.64 344.894 312.424 341.715 303.933L328.827 269.511C325.873 261.619 314.664 261.752 311.897 269.712L288.974 335.675C286.45 342.938 277.443 345.437 271.538 340.511L261.077 331.786C257.842 329.087 253.167 328.994 249.827 331.561L226.504 349.488L225.286 347.902Z">
</path>
<g >
<path     fill="#999999"  d="M419.243 423.196L420.255 423.201L420.275 419.582L423.355 419.599L423.359 418.741L420.279 418.724L420.294 415.996L423.924 416.016L423.929 415.158L419.287 415.133L419.243 423.196ZM425.216 423.228L426.228 423.233L426.249 419.395C426.65 418.385 427.257 418.014 427.752 418.017C428.005 418.018 428.137 418.052 428.335 418.119L428.526 417.251C428.34 417.151 428.153 417.117 427.889 417.115C427.229 417.112 426.611 417.592 426.188 418.349L426.166 418.349L426.073 417.26L425.248 417.255L425.216 423.228ZM429.484 423.251L430.496 423.257L430.528 417.284L429.516 417.278L429.484 423.251ZM430.029 416.049C430.425 416.051 430.701 415.789 430.704 415.382C430.706 414.997 430.432 414.731 430.036 414.729C429.64 414.727 429.375 414.989 429.373 415.374C429.37 415.781 429.633 416.047 430.029 416.049Z">
</path>
</g>
<g >
<path     fill="#999999"  d="M369.017 422.924L370.04 422.929L370.079 415.725L372.521 415.738L372.526 414.88L366.619 414.848L366.614 415.706L369.056 415.719L369.017 422.924ZM373.835 422.95L374.847 422.955L374.87 418.622C375.468 418.02 375.887 417.714 376.503 417.717C377.295 417.722 377.634 418.196 377.628 419.318L377.608 422.97L378.609 422.976L378.629 419.192C378.637 417.674 378.07 416.846 376.816 416.839C376.002 416.835 375.384 417.282 374.831 417.829L374.881 416.598L374.894 414.2L373.882 414.194L373.835 422.95ZM382.26 423.139C383.074 423.143 383.67 422.717 384.235 422.071L384.268 422.071L384.34 423.007L385.176 423.011L385.208 417.038L384.207 417.033L384.184 421.268C383.608 421.969 383.178 422.275 382.562 422.271C381.77 422.267 381.442 421.792 381.448 420.681L381.468 417.018L380.456 417.013L380.436 420.797C380.427 422.326 380.995 423.132 382.26 423.139Z">
</path>
</g>
<g >
<path     fill="#999999"  d="M320.271 422.66L321.481 422.667L322.706 417.811C322.842 417.174 322.999 416.592 323.123 415.977L323.167 415.977C323.296 416.593 323.414 417.177 323.553 417.816L324.748 422.684L325.98 422.691L327.685 414.637L326.717 414.632L325.824 419.016C325.676 419.884 325.517 420.753 325.37 421.632L325.304 421.631C325.11 420.75 324.939 419.869 324.746 419.01L323.648 414.615L322.713 414.61L321.578 418.993C321.375 419.861 321.173 420.729 320.992 421.608L320.948 421.608C320.788 420.727 320.638 419.857 320.478 418.987L319.655 414.594L318.61 414.588L320.271 422.66ZM331.369 422.863C332.172 422.868 332.812 422.607 333.33 422.269L332.982 421.596C332.529 421.891 332.066 422.064 331.483 422.061C330.35 422.055 329.574 421.237 329.515 419.96L333.541 419.982C333.564 419.828 333.587 419.63 333.588 419.41C333.597 417.705 332.745 416.601 331.216 416.592C329.852 416.585 328.537 417.777 328.526 419.724C328.515 421.693 329.774 422.855 331.369 422.863ZM329.508 419.245C329.635 418.058 330.387 417.391 331.234 417.395C332.169 417.4 332.715 418.052 332.709 419.262L329.508 419.245ZM337.078 422.894C337.793 422.898 338.433 422.516 338.898 422.057L338.931 422.057L339.015 422.762L339.84 422.766L339.887 414.01L338.875 414.005L338.863 416.304L338.912 417.327C338.387 416.895 337.937 416.629 337.233 416.625C335.869 416.617 334.641 417.821 334.631 419.757C334.62 421.748 335.582 422.886 337.078 422.894ZM337.303 422.048C336.258 422.043 335.657 421.192 335.665 419.751C335.672 418.387 336.447 417.468 337.404 417.473C337.899 417.475 338.36 417.654 338.853 418.108L338.836 421.243C338.338 421.79 337.853 422.051 337.303 422.048Z">
</path>
</g>
<g >
<path     fill="#999999"  d="M278.577 422.435L279.6 422.44L279.639 415.235L282.081 415.248L282.085 414.39L276.178 414.358L276.174 415.216L278.616 415.23L278.577 422.435ZM285.143 422.613C285.957 422.618 286.553 422.192 287.118 421.546L287.151 421.546L287.223 422.481L288.059 422.486L288.091 416.513L287.09 416.508L287.067 420.742C286.491 421.443 286.061 421.749 285.445 421.746C284.653 421.741 284.325 421.267 284.331 420.156L284.351 416.493L283.339 416.487L283.319 420.271C283.31 421.8 283.878 422.606 285.143 422.613ZM282.741 435.6C283.544 435.605 284.183 435.344 284.702 435.006L284.354 434.333C283.901 434.628 283.438 434.801 282.855 434.798C281.722 434.792 280.945 433.974 280.886 432.697L284.912 432.719C284.935 432.565 284.958 432.367 284.959 432.147C284.969 430.442 284.117 429.338 282.588 429.329C281.224 429.322 279.908 430.514 279.898 432.461C279.887 434.43 281.146 435.592 282.741 435.6ZM280.879 431.982C281.007 430.795 281.758 430.128 282.605 430.133C283.54 430.138 284.087 430.79 284.08 432L280.879 431.982Z">
</path>
</g>
<g >
<path     fill="#999999"  d="M467.329 423.599C469.012 423.608 470.074 422.602 470.081 421.326C470.087 420.127 469.364 419.573 468.431 419.161L467.29 418.66C466.665 418.392 465.951 418.091 465.955 417.299C465.959 416.584 466.556 416.137 467.469 416.142C468.217 416.146 468.809 416.435 469.302 416.899L469.833 416.253C469.275 415.667 468.431 415.256 467.474 415.251C466.011 415.243 464.928 416.128 464.921 417.371C464.915 418.548 465.803 419.125 466.549 419.448L467.701 419.96C468.469 420.305 469.051 420.572 469.046 421.408C469.042 422.189 468.412 422.714 467.345 422.708C466.509 422.703 465.697 422.303 465.129 421.695L464.52 422.396C465.209 423.125 466.185 423.593 467.329 423.599ZM472.928 423.629C473.665 423.633 474.338 423.252 474.913 422.782L474.946 422.782L475.03 423.498L475.855 423.502L475.875 419.828C475.883 418.343 475.283 417.372 473.82 417.364C472.852 417.359 472.014 417.783 471.473 418.132L471.854 418.827C472.329 418.511 472.958 418.195 473.651 418.199C474.63 418.204 474.879 418.943 474.875 419.713C472.332 419.985 471.207 420.628 471.2 421.926C471.194 423.004 471.927 423.624 472.928 423.629ZM473.219 422.817C472.625 422.814 472.164 422.547 472.168 421.865C472.172 421.095 472.857 420.604 474.871 420.384L474.862 422.045C474.276 422.558 473.791 422.82 473.219 422.817ZM479.616 423.665C479.99 423.667 480.387 423.56 480.728 423.451L480.535 422.691C480.336 422.778 480.072 422.854 479.852 422.853C479.159 422.849 478.93 422.43 478.934 421.704L478.952 418.36L480.58 418.368L480.584 417.554L478.956 417.546L478.965 415.863L478.129 415.858L478.01 417.541L477.064 417.59L477.06 418.349L477.951 418.354L477.933 421.665C477.927 422.864 478.351 423.658 479.616 423.665Z">
</path>
</g>
<g >
<path     fill="#999999"  d="M224.765 422.143L225.678 422.148L225.702 417.682C225.705 416.989 225.645 416.01 225.583 415.306L225.627 415.306L226.266 417.146L227.772 421.346L228.454 421.349L229.995 417.167L230.653 415.333L230.697 415.333C230.639 416.037 230.556 417.016 230.553 417.709L230.528 422.175L231.474 422.18L231.518 414.117L230.297 414.11L228.734 418.414C228.544 418.963 228.376 419.534 228.164 420.094L228.12 420.094C227.925 419.531 227.752 418.959 227.546 418.407L226.029 414.087L224.808 414.081L224.765 422.143ZM235.918 422.347C237.381 422.355 238.685 421.218 238.695 419.238C238.706 417.247 237.414 416.085 235.952 416.077C234.489 416.069 233.184 417.217 233.174 419.208C233.163 421.188 234.455 422.339 235.918 422.347ZM235.922 421.511C234.888 421.505 234.2 420.588 234.208 419.214C234.215 417.839 234.913 416.918 235.947 416.924C236.981 416.929 237.68 417.857 237.672 419.232C237.665 420.607 236.956 421.516 235.922 421.511ZM240.263 422.227L241.275 422.233L241.299 417.899C241.896 417.297 242.316 416.991 242.932 416.995C243.724 416.999 244.062 417.474 244.056 418.596L244.036 422.248L245.037 422.253L245.058 418.469C245.066 416.951 244.498 416.123 243.244 416.116C242.43 416.112 241.801 416.56 241.237 417.128L241.215 417.128L241.121 416.259L240.296 416.254L240.263 422.227Z">
</path>
</g>
<g >
<path     fill="#999999"  d="M215.725 397.267C217.254 397.275 218.24 395.895 218.256 393.079C218.271 390.285 217.299 388.927 215.77 388.918C214.23 388.91 213.255 390.258 213.24 393.052C213.225 395.868 214.185 397.259 215.725 397.267ZM215.729 396.453C214.816 396.448 214.195 395.422 214.208 393.057C214.221 390.703 214.853 389.705 215.766 389.71C216.679 389.715 217.3 390.72 217.288 393.074C217.275 395.439 216.642 396.458 215.729 396.453Z">
</path>
</g>
<g >
<path     fill="#999999"  d="M201.142 360.095L206.213 360.122L206.218 359.253L203.985 359.241C203.578 359.239 203.082 359.28 202.664 359.311C204.566 357.528 205.851 355.896 205.86 354.279C205.867 352.849 204.959 351.909 203.518 351.901C202.495 351.896 201.789 352.354 201.136 353.066L201.716 353.641C202.17 353.104 202.733 352.711 203.393 352.715C204.394 352.72 204.874 353.394 204.869 354.318C204.862 355.704 203.687 357.303 201.145 359.501L201.142 360.095ZM209.82 360.285C211.349 360.293 212.336 358.912 212.351 356.096C212.366 353.302 211.394 351.944 209.865 351.936C208.325 351.927 207.35 353.275 207.335 356.069C207.32 358.885 208.28 360.276 209.82 360.285ZM209.825 359.471C208.912 359.466 208.29 358.439 208.303 356.074C208.316 353.72 208.948 352.723 209.861 352.728C210.774 352.733 211.396 353.737 211.383 356.091C211.37 358.456 210.738 359.476 209.825 359.471ZM215.925 360.318C217.454 360.326 218.44 358.945 218.456 356.129C218.471 353.335 217.499 351.977 215.97 351.969C214.43 351.96 213.455 353.308 213.44 356.102C213.425 358.918 214.385 360.309 215.925 360.318ZM215.929 359.504C215.016 359.499 214.395 358.472 214.408 356.107C214.421 353.753 215.053 352.756 215.966 352.761C216.879 352.766 217.5 353.77 217.488 356.124C217.475 358.489 216.842 359.509 215.929 359.504Z">
</path>
</g>
<g >
<path     fill="#999999"  d="M204.598 323.163L205.544 323.168L205.556 320.946L206.634 320.952L206.638 320.149L205.56 320.143L205.587 315.105L204.476 315.099L201.093 320.262L201.09 320.922L204.61 320.941L204.598 323.163ZM204.614 320.138L202.139 320.125L203.991 317.384C204.224 316.99 204.446 316.584 204.646 316.2L204.69 316.2C204.666 316.607 204.63 317.267 204.627 317.663L204.614 320.138ZM210.02 323.335C211.549 323.343 212.535 321.963 212.551 319.147C212.566 316.353 211.594 314.995 210.065 314.986C208.525 314.978 207.55 316.326 207.535 319.12C207.519 321.936 208.48 323.327 210.02 323.335ZM210.024 322.521C209.111 322.516 208.49 321.49 208.503 319.125C208.515 316.771 209.148 315.773 210.061 315.778C210.974 315.783 211.595 316.788 211.583 319.142C211.57 321.507 210.937 322.526 210.024 322.521ZM216.125 323.368C217.654 323.377 218.64 321.996 218.655 319.18C218.671 316.386 217.699 315.028 216.17 315.019C214.63 315.011 213.655 316.359 213.64 319.153C213.624 321.969 214.585 323.36 216.125 323.368ZM216.129 322.554C215.216 322.549 214.595 321.523 214.607 319.158C214.62 316.804 215.253 315.806 216.166 315.811C217.079 315.816 217.7 316.821 217.687 319.175C217.675 321.54 217.042 322.559 216.129 322.554Z">
</path>
</g>
<g >
<path     fill="#999999"  d="M204.368 286.364C205.622 286.371 206.695 285.321 206.703 283.759C206.712 282.065 205.837 281.224 204.473 281.217C203.846 281.213 203.14 281.572 202.641 282.175C202.699 279.678 203.617 278.836 204.739 278.842C205.223 278.845 205.705 279.089 206.011 279.465L206.587 278.852C206.138 278.366 205.535 278.021 204.699 278.017C203.137 278.008 201.712 279.2 201.695 282.357C201.68 285.019 202.828 286.356 204.368 286.364ZM202.659 282.978C203.191 282.233 203.809 281.961 204.304 281.964C205.283 281.969 205.752 282.665 205.746 283.754C205.74 284.853 205.142 285.576 204.372 285.572C203.36 285.567 202.76 284.65 202.659 282.978ZM210.22 286.396C211.749 286.404 212.735 285.023 212.75 282.207C212.766 279.413 211.794 278.055 210.265 278.047C208.725 278.039 207.75 279.386 207.735 282.18C207.719 284.996 208.68 286.387 210.22 286.396ZM210.224 285.582C209.311 285.577 208.69 284.55 208.703 282.185C208.715 279.832 209.348 278.834 210.261 278.839C211.174 278.844 211.795 279.848 211.782 282.202C211.77 284.567 211.137 285.587 210.224 285.582ZM216.325 286.429C217.854 286.437 218.84 285.056 218.855 282.24C218.87 279.446 217.899 278.088 216.37 278.08C214.83 278.072 213.855 279.419 213.839 282.213C213.824 285.029 214.785 286.42 216.325 286.429ZM216.329 285.615C215.416 285.61 214.795 284.583 214.807 282.219C214.82 279.865 215.453 278.867 216.366 278.872C217.279 278.877 217.9 279.881 217.887 282.235C217.875 284.6 217.242 285.62 216.329 285.615Z">
</path>
</g>
<g >
<path     fill="#999999"  d="M204.337 249.413C205.844 249.422 206.861 248.514 206.867 247.348C206.873 246.237 206.227 245.629 205.526 245.218L205.526 245.163C206.001 244.791 206.599 244.069 206.603 243.222C206.61 241.979 205.779 241.094 204.404 241.087C203.15 241.08 202.188 241.9 202.182 243.121C202.177 243.968 202.68 244.575 203.261 244.986L203.261 245.03C202.521 245.422 201.78 246.177 201.774 247.255C201.768 248.497 202.841 249.405 204.337 249.413ZM204.911 244.895C203.956 244.516 203.09 244.083 203.095 243.126C203.099 242.345 203.641 241.831 204.389 241.835C205.247 241.839 205.749 242.469 205.745 243.272C205.742 243.866 205.453 244.414 204.911 244.895ZM204.352 248.665C203.384 248.66 202.661 248.029 202.666 247.171C202.67 246.401 203.136 245.766 203.787 245.351C204.928 245.82 205.916 246.221 205.91 247.31C205.906 248.113 205.287 248.671 204.352 248.665ZM210.42 249.446C211.949 249.455 212.935 248.074 212.95 245.258C212.966 242.464 211.994 241.106 210.465 241.097C208.925 241.089 207.95 242.437 207.934 245.231C207.919 248.047 208.88 249.438 210.42 249.446ZM210.424 248.632C209.511 248.627 208.89 247.601 208.902 245.236C208.915 242.882 209.548 241.884 210.461 241.889C211.374 241.894 211.995 242.899 211.982 245.253C211.97 247.618 211.337 248.637 210.424 248.632ZM216.525 249.479C218.054 249.488 219.04 248.107 219.055 245.291C219.07 242.497 218.099 241.139 216.57 241.13C215.03 241.122 214.055 242.47 214.039 245.264C214.024 248.08 214.985 249.471 216.525 249.479ZM216.529 248.665C215.616 248.66 214.995 247.634 215.007 245.269C215.02 242.915 215.653 241.918 216.566 241.922C217.479 241.927 218.1 242.932 218.087 245.286C218.075 247.651 217.442 248.67 216.529 248.665Z">
</path>
</g>
<g >
<path     fill="#999999"  d="M199.261 208.468L200.377 208.474L201.244 205.791L204.46 205.808L205.285 208.501L206.461 208.507L203.521 199.695L202.285 199.689L199.261 208.468ZM201.525 204.917L201.964 203.563C202.281 202.569 202.574 201.622 202.856 200.592L202.904 200.592C203.186 201.613 203.457 202.575 203.776 203.573L204.189 204.931L201.525 204.917ZM208.764 208.676C209.064 208.677 209.245 208.63 209.401 208.583L209.249 207.742C209.129 207.766 209.081 207.765 209.021 207.765C208.853 207.764 208.722 207.632 208.724 207.296L208.769 198.968L207.665 198.962L207.62 207.218C207.615 208.142 207.948 208.671 208.764 208.676ZM212.172 208.694C212.472 208.696 212.653 208.649 212.809 208.602L212.657 207.761C212.537 207.784 212.489 207.784 212.429 207.784C212.261 207.783 212.13 207.65 212.132 207.314L212.177 198.986L211.073 198.98L211.028 207.236C211.023 208.16 211.356 208.69 212.172 208.694ZM220.039 208.737C220.915 208.741 221.612 208.457 222.178 208.088L221.798 207.354C221.305 207.676 220.8 207.865 220.164 207.861C218.928 207.855 218.08 206.962 218.016 205.57L222.408 205.594C222.433 205.426 222.458 205.21 222.459 204.97C222.469 203.11 221.54 201.905 219.872 201.896C218.384 201.888 216.949 203.188 216.937 205.312C216.926 207.46 218.299 208.727 220.039 208.737ZM218.008 204.79C218.147 203.494 218.967 202.767 219.891 202.772C220.911 202.777 221.507 203.489 221.5 204.809L218.008 204.79ZM224.048 208.602L225.152 208.608L225.177 203.88C225.769 203.212 226.323 202.891 226.815 202.893C227.643 202.898 228.024 203.416 228.017 204.64L227.996 208.624L229.088 208.63L229.113 203.902C229.729 203.233 230.259 202.912 230.763 202.915C231.591 202.919 231.972 203.437 231.965 204.661L231.944 208.645L233.036 208.651L233.058 204.523C233.067 202.867 232.436 201.964 231.104 201.957C230.3 201.952 229.625 202.465 228.937 203.193C228.677 202.423 228.152 201.941 227.144 201.935C226.364 201.931 225.689 202.419 225.11 203.04L225.086 203.04L224.983 202.091L224.083 202.087L224.048 208.602ZM235.145 211.411L236.249 211.417L236.261 209.209L236.231 208.068C236.816 208.564 237.439 208.831 238.027 208.834C239.515 208.842 240.866 207.565 240.878 205.333C240.889 203.317 239.984 202.005 238.304 201.995C237.548 201.991 236.813 202.419 236.223 202.908L236.199 202.908L236.095 202.152L235.195 202.147L235.145 211.411ZM237.852 207.909C237.42 207.907 236.845 207.736 236.271 207.229L236.29 203.797C236.917 203.224 237.483 202.915 238.023 202.918C239.271 202.925 239.745 203.887 239.738 205.339C239.729 206.947 238.932 207.915 237.852 207.909ZM243.751 208.865C244.051 208.867 244.231 208.82 244.387 208.772L244.236 207.932C244.115 207.955 244.067 207.955 244.007 207.954C243.839 207.954 243.708 207.821 243.71 207.485L243.755 199.157L242.651 199.151L242.606 207.407C242.601 208.331 242.935 208.861 243.751 208.865ZM248.538 208.891C250.134 208.9 251.557 207.659 251.569 205.499C251.581 203.327 250.171 202.06 248.575 202.051C246.979 202.042 245.557 203.295 245.545 205.467C245.533 207.627 246.942 208.882 248.538 208.891ZM248.543 207.979C247.415 207.973 246.665 206.973 246.673 205.473C246.681 203.973 247.442 202.969 248.57 202.975C249.698 202.981 250.461 203.993 250.453 205.493C250.445 206.993 249.671 207.985 248.543 207.979ZM253.372 211.569C254.668 211.576 255.357 210.596 255.82 209.326L258.306 202.272L257.238 202.266L256.043 205.872C255.872 206.459 255.676 207.118 255.505 207.717L255.445 207.716C255.22 207.103 255.008 206.442 254.807 205.865L253.506 202.246L252.367 202.24L254.947 208.782L254.8 209.273C254.52 210.075 254.061 210.673 253.329 210.669C253.149 210.668 252.957 210.607 252.826 210.558L252.605 211.433C252.808 211.518 253.072 211.568 253.372 211.569ZM262.17 208.965C263.046 208.969 263.744 208.685 264.31 208.316L263.93 207.582C263.436 207.904 262.931 208.093 262.295 208.089C261.059 208.083 260.212 207.19 260.147 205.798L264.539 205.821C264.564 205.654 264.589 205.438 264.591 205.198C264.601 203.338 263.671 202.133 262.003 202.124C260.515 202.116 259.08 203.416 259.069 205.54C259.057 207.688 260.43 208.955 262.17 208.965ZM260.14 205.018C260.279 203.722 261.099 202.995 262.023 203C263.043 203.005 263.639 203.717 263.632 205.037L260.14 205.018ZM268.818 209.001C269.694 209.005 270.392 208.721 270.958 208.352L270.578 207.618C270.084 207.94 269.579 208.129 268.943 208.125C267.707 208.119 266.86 207.226 266.795 205.834L271.187 205.857C271.212 205.69 271.237 205.474 271.239 205.234C271.249 203.374 270.319 202.169 268.651 202.16C267.163 202.152 265.728 203.452 265.717 205.576C265.705 207.724 267.078 208.991 268.818 209.001ZM266.787 205.054C266.926 203.758 267.746 203.031 268.67 203.036C269.69 203.041 270.287 203.753 270.279 205.073L266.787 205.054ZM274.53 209.032C276.066 209.04 276.899 208.168 276.904 207.112C276.911 205.876 275.881 205.487 274.935 205.122C274.205 204.842 273.534 204.598 273.537 203.986C273.54 203.47 273.926 203.04 274.754 203.045C275.33 203.048 275.785 203.302 276.227 203.629L276.759 202.948C276.269 202.537 275.551 202.197 274.747 202.193C273.319 202.185 272.499 202.997 272.493 204.028C272.487 205.144 273.469 205.582 274.379 205.923C275.097 206.191 275.864 206.507 275.86 207.167C275.857 207.731 275.435 208.184 274.571 208.18C273.791 208.176 273.216 207.86 272.643 207.389L272.111 208.118C272.72 208.638 273.606 209.027 274.53 209.032ZM283.981 209.083C284.761 209.087 285.506 208.779 286.097 208.278L285.621 207.532C285.211 207.889 284.682 208.174 284.082 208.171C282.882 208.165 282.071 207.164 282.079 205.664C282.087 204.164 282.957 203.161 284.145 203.168C284.649 203.17 285.067 203.401 285.438 203.739L285.993 203.022C285.54 202.611 284.954 202.248 284.102 202.243C282.422 202.234 280.963 203.486 280.951 205.658C280.939 207.818 282.253 209.073 283.981 209.083ZM290.065 209.116C291.661 209.124 293.083 207.884 293.095 205.724C293.107 203.552 291.698 202.284 290.102 202.276C288.506 202.267 287.083 203.519 287.071 205.691C287.059 207.851 288.469 209.107 290.065 209.116ZM290.069 208.204C288.941 208.198 288.191 207.197 288.199 205.697C288.207 204.198 288.969 203.194 290.097 203.2C291.225 203.206 291.987 204.218 291.979 205.718C291.971 207.218 291.197 208.21 290.069 208.204ZM294.805 208.985L295.909 208.991L295.935 204.263C296.527 203.595 297.08 203.273 297.572 203.276C298.4 203.281 298.781 203.799 298.775 205.023L298.753 209.007L299.845 209.013L299.871 204.285C300.486 203.616 301.016 203.295 301.52 203.298C302.348 203.302 302.729 203.82 302.723 205.044L302.701 209.028L303.793 209.034L303.816 204.906C303.824 203.25 303.193 202.347 301.861 202.339C301.057 202.335 300.383 202.847 299.695 203.576C299.435 202.806 298.909 202.323 297.901 202.318C297.121 202.314 296.447 202.802 295.867 203.423L295.843 203.423L295.741 202.474L294.841 202.469L294.805 208.985ZM305.902 211.793L307.006 211.799L307.018 209.591L306.988 208.451C307.574 208.946 308.196 209.214 308.784 209.217C310.272 209.225 311.623 207.948 311.635 205.716C311.646 203.7 310.741 202.387 309.061 202.378C308.305 202.374 307.571 202.802 306.98 203.291L306.956 203.291L306.852 202.534L305.952 202.529L305.902 211.793ZM308.609 208.292C308.177 208.29 307.602 208.118 307.029 207.611L307.048 204.179C307.675 203.607 308.24 203.298 308.78 203.301C310.028 203.308 310.503 204.27 310.495 205.722C310.487 207.33 309.689 208.298 308.609 208.292ZM314.508 209.248C314.808 209.25 314.988 209.202 315.145 209.155L314.993 208.314C314.873 208.338 314.825 208.338 314.765 208.337C314.597 208.336 314.466 208.204 314.468 207.868L314.513 199.54L313.409 199.534L313.364 207.79C313.359 208.714 313.692 209.243 314.508 209.248ZM319.404 209.274C320.28 209.279 320.978 208.995 321.544 208.626L321.164 207.892C320.67 208.213 320.165 208.402 319.529 208.399C318.293 208.392 317.446 207.5 317.381 206.107L321.773 206.131C321.798 205.963 321.823 205.747 321.825 205.507C321.835 203.647 320.905 202.442 319.237 202.433C317.749 202.425 316.314 203.726 316.303 205.85C316.291 207.998 317.664 209.265 319.404 209.274ZM317.373 205.327C317.512 204.032 318.332 203.304 319.256 203.309C320.276 203.315 320.873 204.026 320.865 205.346L317.373 205.327ZM325.452 209.307C325.86 209.309 326.293 209.192 326.665 209.074L326.454 208.245C326.237 208.339 325.949 208.422 325.709 208.42C324.953 208.416 324.703 207.959 324.708 207.167L324.727 203.519L326.503 203.529L326.508 202.641L324.732 202.631L324.742 200.795L323.83 200.79L323.7 202.626L322.668 202.68L322.663 203.508L323.635 203.513L323.616 207.125C323.609 208.433 324.072 209.3 325.452 209.307ZM330.576 209.335C331.452 209.34 332.149 209.055 332.716 208.686L332.335 207.952C331.842 208.274 331.337 208.463 330.701 208.459C329.465 208.453 328.618 207.56 328.553 206.168L332.945 206.192C332.97 206.024 332.995 205.808 332.996 205.568C333.006 203.708 332.077 202.503 330.409 202.494C328.921 202.486 327.486 203.786 327.474 205.91C327.463 208.058 328.836 209.325 330.576 209.335ZM328.545 205.388C328.684 204.093 329.504 203.365 330.428 203.37C331.448 203.375 332.044 204.087 332.037 205.407L328.545 205.388ZM339.595 209.384C340.003 209.386 340.435 209.268 340.808 209.15L340.596 208.321C340.38 208.416 340.091 208.498 339.851 208.497C339.095 208.493 338.846 208.036 338.85 207.244L338.87 203.596L340.646 203.605L340.651 202.717L338.875 202.708L338.885 200.872L337.973 200.867L337.843 202.702L336.81 202.756L336.806 203.584L337.778 203.59L337.758 207.202C337.751 208.51 338.215 209.376 339.595 209.384ZM342.079 209.241L343.183 209.247L343.209 204.519C343.86 203.863 344.318 203.529 344.99 203.533C345.854 203.537 346.223 204.055 346.217 205.279L346.195 209.263L347.287 209.269L347.31 205.141C347.319 203.485 346.699 202.582 345.331 202.575C344.443 202.57 343.769 203.058 343.166 203.655L343.221 202.311L343.235 199.695L342.131 199.689L342.079 209.241ZM352.002 209.451C352.878 209.455 353.576 209.171 354.142 208.802L353.762 208.068C353.268 208.39 352.763 208.579 352.127 208.575C350.891 208.569 350.044 207.676 349.979 206.284L354.371 206.308C354.396 206.14 354.421 205.924 354.423 205.684C354.433 203.824 353.503 202.619 351.835 202.61C350.347 202.602 348.912 203.902 348.901 206.026C348.889 208.174 350.262 209.441 352.002 209.451ZM349.972 205.504C350.111 204.208 350.931 203.481 351.855 203.486C352.875 203.491 353.471 204.203 353.464 205.523L349.972 205.504ZM360.014 209.338L361.286 209.345L362.229 205.858C362.4 205.235 362.535 204.624 362.683 203.964L362.743 203.965C362.895 204.626 363.012 205.226 363.177 205.839L364.094 209.36L365.426 209.367L367.225 202.861L366.169 202.855L365.201 206.618C365.053 207.241 364.93 207.829 364.795 208.428L364.735 208.428C364.582 207.827 364.441 207.238 364.289 206.613L363.289 202.84L362.221 202.834L361.181 206.596C361.021 207.22 360.874 207.807 360.739 208.406L360.679 208.406C360.55 207.805 360.433 207.216 360.305 206.592L359.353 202.818L358.237 202.812L360.014 209.338ZM371.137 209.554C372.733 209.563 374.155 208.323 374.167 206.163C374.179 203.991 372.77 202.723 371.174 202.714C369.578 202.706 368.155 203.958 368.143 206.13C368.132 208.29 369.541 209.546 371.137 209.554ZM371.142 208.642C370.014 208.636 369.263 207.636 369.271 206.136C369.279 204.636 370.041 203.632 371.169 203.638C372.297 203.644 373.059 204.657 373.051 206.157C373.043 207.657 372.27 208.648 371.142 208.642ZM375.878 209.424L376.982 209.43L377.004 205.242C377.442 204.14 378.104 203.736 378.644 203.739C378.92 203.74 379.064 203.777 379.28 203.85L379.489 202.903C379.285 202.794 379.082 202.757 378.794 202.756C378.074 202.752 377.399 203.276 376.938 204.102L376.914 204.101L376.813 202.913L375.913 202.908L375.878 209.424ZM380.533 209.449L381.613 209.455L381.623 207.739L382.854 206.318L384.745 209.472L385.933 209.478L383.494 205.577L385.681 202.961L384.457 202.954L381.678 206.371L381.63 206.371L381.665 199.903L380.585 199.897L380.533 209.449ZM390.113 212.249L391.217 212.255L391.229 210.047L391.199 208.907C391.785 209.402 392.407 209.669 392.995 209.673C394.483 209.681 395.834 208.404 395.846 206.172C395.857 204.156 394.952 202.843 393.272 202.834C392.516 202.83 391.782 203.258 391.191 203.747L391.167 203.747L391.063 202.99L390.163 202.985L390.113 212.249ZM392.82 208.748C392.388 208.745 391.813 208.574 391.24 208.067L391.258 204.635C391.885 204.062 392.451 203.754 392.991 203.756C394.239 203.763 394.714 204.726 394.706 206.178C394.697 207.786 393.9 208.753 392.82 208.748ZM397.568 209.541L398.672 209.547L398.695 205.359C399.133 204.258 399.795 203.853 400.335 203.856C400.611 203.858 400.755 203.894 400.97 203.968L401.179 203.021C400.976 202.912 400.772 202.875 400.484 202.873C399.764 202.869 399.089 203.393 398.629 204.219L398.605 204.219L398.503 203.03L397.603 203.025L397.568 209.541ZM404.755 209.736C406.351 209.745 407.774 208.504 407.785 206.345C407.797 204.173 406.388 202.905 404.792 202.896C403.196 202.888 401.773 204.14 401.761 206.312C401.75 208.472 403.159 209.728 404.755 209.736ZM404.76 208.824C403.632 208.818 402.881 207.818 402.889 206.318C402.898 204.818 403.659 203.814 404.787 203.82C405.915 203.826 406.677 204.839 406.669 206.338C406.661 207.838 405.888 208.83 404.76 208.824ZM411.675 212.618C413.691 212.629 414.981 211.592 414.988 210.38C414.993 209.3 414.228 208.827 412.728 208.819L411.444 208.812C410.568 208.808 410.306 208.506 410.308 208.098C410.31 207.738 410.491 207.523 410.732 207.32C411.019 207.466 411.379 207.552 411.691 207.554C413.035 207.561 414.084 206.691 414.091 205.299C414.094 204.735 413.881 204.253 413.57 203.952L414.902 203.959L414.907 203.119L412.639 203.107C412.411 203.01 412.088 202.936 411.716 202.934C410.408 202.927 409.275 203.821 409.267 205.249C409.263 206.029 409.68 206.667 410.11 207.005L410.11 207.053C409.76 207.291 409.386 207.721 409.383 208.261C409.38 208.777 409.63 209.127 409.965 209.332L409.965 209.392C409.351 209.761 409 210.299 408.997 210.863C408.991 211.979 410.091 212.609 411.675 212.618ZM411.695 206.81C410.951 206.806 410.318 206.202 410.323 205.254C410.328 204.294 410.956 203.734 411.712 203.738C412.492 203.742 413.1 204.309 413.095 205.269C413.09 206.217 412.451 206.814 411.695 206.81ZM411.836 211.863C410.648 211.856 409.954 211.408 409.958 210.712C409.96 210.34 410.154 209.945 410.624 209.612C410.911 209.685 411.223 209.711 411.463 209.712L412.591 209.719C413.455 209.723 413.91 209.942 413.907 210.554C413.903 211.226 413.096 211.869 411.836 211.863ZM416.264 209.642L417.368 209.648L417.39 205.46C417.828 204.359 418.49 203.954 419.03 203.957C419.306 203.959 419.45 203.996 419.666 204.069L419.875 203.122C419.672 203.013 419.468 202.976 419.18 202.974C418.46 202.97 417.785 203.495 417.324 204.32L417.3 204.32L417.199 203.131L416.299 203.127L416.264 209.642ZM423.559 209.838C424.435 209.843 425.132 209.558 425.698 209.189L425.318 208.455C424.824 208.777 424.319 208.966 423.683 208.963C422.447 208.956 421.6 208.063 421.536 206.671L425.928 206.695C425.953 206.527 425.978 206.311 425.979 206.071C425.989 204.211 425.06 203.006 423.392 202.997C421.904 202.989 420.469 204.289 420.457 206.413C420.446 208.561 421.819 209.828 423.559 209.838ZM421.528 205.891C421.667 204.596 422.487 203.868 423.411 203.873C424.431 203.879 425.027 204.59 425.02 205.91L421.528 205.891ZM429.271 209.869C430.807 209.877 431.639 209.006 431.645 207.95C431.652 206.714 430.622 206.324 429.676 205.959C428.945 205.679 428.275 205.435 428.278 204.823C428.281 204.307 428.667 203.877 429.495 203.882C430.071 203.885 430.526 204.14 430.968 204.466L431.5 203.785C431.01 203.374 430.292 203.034 429.488 203.03C428.06 203.022 427.239 203.834 427.234 204.866C427.228 205.982 428.209 206.419 429.119 206.76C429.838 207.028 430.604 207.344 430.601 208.004C430.598 208.568 430.175 209.022 429.311 209.017C428.531 209.013 427.957 208.698 427.383 208.227L426.852 208.956C427.461 209.475 428.347 209.864 429.271 209.869ZM434.887 209.899C436.423 209.908 437.255 209.036 437.261 207.98C437.268 206.744 436.238 206.354 435.292 205.989C434.561 205.709 433.891 205.466 433.894 204.854C433.897 204.338 434.283 203.908 435.111 203.912C435.687 203.915 436.142 204.17 436.584 204.496L437.115 203.815C436.626 203.405 435.908 203.065 435.104 203.06C433.676 203.053 432.855 203.864 432.85 204.896C432.844 206.012 433.825 206.449 434.735 206.79C435.454 207.058 436.22 207.374 436.217 208.034C436.214 208.598 435.791 209.052 434.927 209.047C434.147 209.043 433.573 208.728 432.999 208.257L432.467 208.986C433.077 209.505 433.963 209.894 434.887 209.899Z">
</path>
</g>
<g >
<path     fill="#151522"  d="M374.677 151.944C376.36 151.953 377.422 150.946 377.428 149.67C377.435 148.471 376.712 147.918 375.779 147.505L374.638 147.004C374.012 146.737 373.299 146.436 373.303 145.644C373.307 144.929 373.903 144.481 374.816 144.486C375.564 144.49 376.157 144.779 376.649 145.244L377.181 144.598C376.623 144.012 375.778 143.6 374.821 143.595C373.358 143.587 372.275 144.472 372.269 145.715C372.262 146.892 373.15 147.469 373.897 147.792L375.049 148.305C375.817 148.65 376.398 148.917 376.394 149.753C376.39 150.534 375.76 151.058 374.693 151.053C373.857 151.048 373.045 150.648 372.476 150.04L371.868 150.74C372.557 151.47 373.533 151.937 374.677 151.944ZM378.902 151.823L379.914 151.829L379.937 147.495C380.534 146.893 380.954 146.587 381.57 146.591C382.362 146.595 382.701 147.07 382.694 148.192L382.675 151.844L383.676 151.849L383.696 148.065C383.704 146.547 383.137 145.719 381.883 145.712C381.069 145.708 380.451 146.156 379.898 146.703L379.948 145.471L379.961 143.073L378.949 143.068L378.902 151.823ZM387.899 152.015C389.362 152.023 390.666 150.886 390.677 148.906C390.688 146.915 389.396 145.753 387.933 145.745C386.47 145.737 385.166 146.885 385.155 148.876C385.144 150.856 386.436 152.007 387.899 152.015ZM387.903 151.179C386.869 151.174 386.181 150.257 386.189 148.882C386.196 147.507 386.894 146.587 387.928 146.592C388.962 146.598 389.661 147.526 389.654 148.901C389.646 150.276 388.937 151.185 387.903 151.179ZM393.191 151.901L394.357 151.907L395.221 148.711C395.378 148.14 395.502 147.579 395.637 146.975L395.692 146.975C395.832 147.581 395.939 148.132 396.09 148.693L396.931 151.921L398.152 151.928L399.801 145.963L398.833 145.958L397.945 149.407C397.81 149.979 397.697 150.517 397.573 151.066L397.518 151.066C397.378 150.515 397.249 149.976 397.109 149.403L396.193 145.944L395.214 145.939L394.26 149.388C394.114 149.959 393.979 150.497 393.855 151.046L393.8 151.046C393.682 150.495 393.575 149.956 393.457 149.383L392.585 145.924L391.562 145.919L393.191 151.901ZM405.824 152.112C406.539 152.116 407.179 151.734 407.643 151.275L407.676 151.275L407.761 151.98L408.586 151.984L408.633 143.228L407.621 143.223L407.608 145.522L407.658 146.545C407.132 146.113 406.683 145.847 405.979 145.843C404.615 145.835 403.387 147.039 403.377 148.975C403.366 150.966 404.328 152.104 405.824 152.112ZM406.048 151.266C405.003 151.261 404.403 150.41 404.411 148.969C404.418 147.605 405.193 146.686 406.15 146.691C406.645 146.693 407.106 146.872 407.599 147.326L407.582 150.461C407.084 151.008 406.598 151.269 406.048 151.266ZM411.984 152.145C412.721 152.149 413.394 151.768 413.968 151.298L414.001 151.298L414.085 152.014L414.91 152.018L414.93 148.344C414.938 146.859 414.339 145.888 412.876 145.88C411.908 145.875 411.069 146.299 410.528 146.648L410.91 147.344C411.384 147.027 412.013 146.712 412.706 146.715C413.685 146.721 413.934 147.459 413.93 148.229C411.387 148.501 410.262 149.144 410.255 150.442C410.249 151.52 410.983 152.14 411.984 152.145ZM412.274 151.333C411.68 151.33 411.22 151.063 411.223 150.381C411.227 149.611 411.912 149.12 413.926 148.9L413.917 150.561C413.331 151.075 412.846 151.336 412.274 151.333ZM418.672 152.182C419.046 152.184 419.442 152.076 419.784 151.968L419.59 151.208C419.391 151.295 419.127 151.37 418.907 151.369C418.214 151.365 417.985 150.946 417.989 150.22L418.007 146.876L419.635 146.885L419.64 146.071L418.012 146.062L418.021 144.379L417.185 144.374L417.066 146.057L416.119 146.107L416.115 146.866L417.006 146.871L416.988 150.181C416.982 151.38 417.407 152.175 418.672 152.182ZM422.324 152.201C423.061 152.205 423.734 151.824 424.308 151.354L424.341 151.354L424.425 152.07L425.25 152.074L425.27 148.4C425.278 146.915 424.678 145.944 423.215 145.936C422.247 145.931 421.409 146.355 420.868 146.704L421.25 147.4C421.724 147.083 422.353 146.767 423.046 146.771C424.025 146.777 424.274 147.515 424.27 148.285C421.727 148.557 420.602 149.2 420.595 150.498C420.589 151.576 421.323 152.196 422.324 152.201ZM422.614 151.389C422.02 151.386 421.559 151.119 421.563 150.437C421.567 149.667 422.252 149.176 424.266 148.956L424.257 150.617C423.671 151.131 423.186 151.392 422.614 151.389ZM427.682 147.797C428.078 147.799 428.41 147.493 428.413 147.031C428.415 146.58 428.087 146.259 427.691 146.257C427.284 146.255 426.963 146.572 426.961 147.023C426.958 147.485 427.275 147.795 427.682 147.797ZM427.658 152.23C428.054 152.232 428.386 151.926 428.389 151.475C428.391 151.013 428.063 150.703 427.667 150.701C427.26 150.699 426.939 151.005 426.937 151.467C426.934 151.918 427.251 152.228 427.658 152.23Z">
</path>
<path     fill="#03bf8a"  d="M434.694 152.125L435.717 152.131L435.756 144.926L438.198 144.939L438.203 144.081L432.296 144.049L432.291 144.907L434.733 144.92L434.694 152.125ZM439.512 152.151L440.524 152.157L440.548 147.823C441.145 147.221 441.565 146.915 442.181 146.919C442.973 146.923 443.311 147.398 443.305 148.52L443.285 152.172L444.286 152.177L444.307 148.393C444.315 146.875 443.747 146.047 442.493 146.04C441.679 146.036 441.061 146.484 440.508 147.031L440.559 145.799L440.572 143.401L439.56 143.396L439.512 152.151ZM446.189 152.188L447.201 152.193L447.233 146.22L446.221 146.215L446.189 152.188ZM446.734 144.985C447.13 144.987 447.406 144.725 447.409 144.318C447.411 143.933 447.137 143.668 446.741 143.665C446.345 143.663 446.08 143.926 446.078 144.311C446.076 144.718 446.338 144.983 446.734 144.985ZM450.775 152.355C452.183 152.363 452.947 151.564 452.952 150.596C452.958 149.463 452.014 149.106 451.147 148.771C450.477 148.515 449.862 148.291 449.865 147.73C449.868 147.257 450.222 146.863 450.981 146.867C451.509 146.87 451.926 147.103 452.331 147.403L452.818 146.778C452.37 146.402 451.711 146.09 450.974 146.086C449.665 146.079 448.913 146.823 448.908 147.769C448.903 148.792 449.802 149.193 450.637 149.506C451.295 149.751 451.998 150.041 451.995 150.646C451.992 151.163 451.604 151.579 450.812 151.575C450.098 151.571 449.571 151.282 449.045 150.85L448.558 151.518C449.116 151.994 449.928 152.351 450.775 152.355ZM458.064 152.252L459.274 152.258L460.499 147.403C460.635 146.766 460.792 146.183 460.916 145.568L460.96 145.568C461.089 146.185 461.207 146.769 461.346 147.407L462.541 152.276L463.773 152.283L465.478 144.229L464.51 144.224L463.617 148.608C463.469 149.476 463.31 150.344 463.163 151.223L463.097 151.223C462.903 150.342 462.732 149.461 462.539 148.602L461.441 144.207L460.506 144.202L459.371 148.585C459.168 149.453 458.966 150.321 458.785 151.2L458.741 151.199C458.581 150.319 458.431 149.449 458.271 148.579L457.448 144.185L456.403 144.18L458.064 152.252ZM469.162 152.455C469.965 152.459 470.605 152.199 471.123 151.86L470.775 151.188C470.322 151.482 469.859 151.656 469.276 151.652C468.143 151.646 467.367 150.828 467.308 149.552L471.334 149.574C471.357 149.42 471.38 149.222 471.381 149.002C471.39 147.297 470.538 146.192 469.009 146.184C467.645 146.177 466.33 147.368 466.319 149.315C466.308 151.284 467.567 152.446 469.162 152.455ZM467.301 148.837C467.428 147.649 468.18 146.982 469.027 146.987C469.962 146.992 470.508 147.644 470.502 148.854L467.301 148.837ZM475.256 152.488C476.059 152.492 476.698 152.232 477.217 151.893L476.869 151.22C476.416 151.515 475.953 151.689 475.37 151.685C474.237 151.679 473.461 150.861 473.402 149.585L477.428 149.606C477.451 149.453 477.474 149.255 477.475 149.035C477.484 147.33 476.632 146.225 475.103 146.217C473.739 146.209 472.424 147.401 472.413 149.348C472.402 151.317 473.661 152.479 475.256 152.488ZM473.395 148.87C473.522 147.682 474.274 147.015 475.121 147.02C476.056 147.025 476.602 147.677 476.596 148.887L473.395 148.87ZM478.931 152.365L479.921 152.37L479.929 150.797L481.058 149.494L482.792 152.386L483.881 152.391L481.645 148.815L483.649 146.417L482.527 146.411L479.98 149.543L479.936 149.543L479.968 143.614L478.978 143.609L478.931 152.365Z">
</path>
</g>
<g >
<path     fill="#171725"  d="M200.811 152.614L207.305 152.649L207.312 151.464L202.197 151.436L202.219 147.431L206.389 147.454L206.395 146.269L202.225 146.246L202.244 142.797L207.194 142.823L207.2 141.653L200.87 141.619L200.811 152.614ZM209.51 152.661L210.89 152.668L210.922 146.759C211.662 145.923 212.354 145.521 212.969 145.525C214.004 145.53 214.481 146.178 214.472 147.708L214.445 152.688L215.81 152.695L215.842 146.785C216.612 145.949 217.274 145.548 217.904 145.551C218.939 145.557 219.415 146.204 219.407 147.734L219.38 152.714L220.745 152.722L220.773 147.562C220.784 145.492 219.995 144.363 218.33 144.354C217.325 144.348 216.482 144.989 215.622 145.899C215.297 144.937 214.641 144.334 213.381 144.327C212.406 144.322 211.562 144.932 210.838 145.708L210.808 145.708L210.679 144.522L209.554 144.516L209.51 152.661ZM223.382 156.171L224.762 156.179L224.776 153.419L224.739 151.993C225.471 152.612 226.249 152.947 226.984 152.951C228.844 152.961 230.533 151.365 230.548 148.575C230.561 146.055 229.43 144.414 227.33 144.402C226.385 144.397 225.467 144.932 224.729 145.543L224.699 145.543L224.569 144.597L223.444 144.591L223.382 156.171ZM226.765 151.794C226.225 151.791 225.506 151.577 224.79 150.944L224.813 146.654C225.597 145.938 226.304 145.552 226.979 145.555C228.539 145.564 229.133 146.767 229.123 148.582C229.112 150.592 228.115 151.802 226.765 151.794ZM234.139 152.989C234.514 152.991 234.739 152.932 234.935 152.874L234.745 151.822C234.595 151.852 234.535 151.851 234.46 151.851C234.25 151.85 234.086 151.684 234.088 151.264L234.145 140.854L232.765 140.847L232.709 151.166C232.703 152.321 233.119 152.984 234.139 152.989ZM240.124 153.022C242.119 153.032 243.897 151.482 243.912 148.782C243.927 146.067 242.165 144.483 240.17 144.472C238.175 144.461 236.397 146.026 236.382 148.741C236.367 151.441 238.129 153.011 240.124 153.022ZM240.13 151.882C238.72 151.874 237.782 150.624 237.792 148.749C237.802 146.874 238.754 145.619 240.164 145.627C241.574 145.634 242.527 146.9 242.517 148.775C242.507 150.649 241.54 151.889 240.13 151.882ZM246.166 156.369C247.786 156.378 248.647 155.153 249.226 153.566L252.334 144.748L250.999 144.74L249.504 149.247C249.29 149.981 249.046 150.805 248.832 151.554L248.757 151.553C248.476 150.787 248.211 149.96 247.959 149.239L246.334 144.715L244.909 144.707L248.135 152.885L247.951 153.499C247.601 154.502 247.027 155.249 246.112 155.244C245.887 155.243 245.647 155.167 245.483 155.106L245.207 156.199C245.461 156.306 245.791 156.367 246.166 156.369ZM257.164 153.114C258.259 153.12 259.131 152.764 259.838 152.303L259.363 151.386C258.746 151.787 258.115 152.024 257.32 152.02C255.775 152.011 254.716 150.896 254.635 149.155L260.125 149.185C260.156 148.975 260.188 148.705 260.189 148.405C260.202 146.08 259.04 144.574 256.955 144.563C255.095 144.552 253.301 146.178 253.287 148.833C253.272 151.518 254.989 153.102 257.164 153.114ZM254.625 148.18C254.799 146.561 255.824 145.651 256.979 145.658C258.254 145.665 258.999 146.554 258.99 148.204L254.625 148.18ZM265.474 153.159C266.568 153.165 267.44 152.809 268.148 152.348L267.673 151.431C267.056 151.832 266.424 152.069 265.629 152.065C264.084 152.056 263.025 150.94 262.945 149.2L268.435 149.23C268.466 149.02 268.497 148.75 268.499 148.45C268.512 146.125 267.35 144.619 265.265 144.608C263.405 144.597 261.611 146.223 261.597 148.878C261.582 151.563 263.299 153.147 265.474 153.159ZM262.935 148.225C263.109 146.606 264.134 145.696 265.289 145.703C266.564 145.71 267.309 146.599 267.3 148.249L262.935 148.225ZM274.333 153.012L275.713 153.019L275.736 148.639L277.551 148.649C279.966 148.662 281.607 147.606 281.62 145.281C281.633 142.881 279.987 142.047 277.527 142.034L274.392 142.017L274.333 153.012ZM275.743 147.514L275.766 143.149L277.341 143.158C279.276 143.168 280.248 143.669 280.24 145.274C280.231 146.849 279.312 147.534 277.378 147.523L275.743 147.514ZM283.693 153.062L285.073 153.07L285.101 147.835C285.648 146.458 286.476 145.952 287.151 145.956C287.496 145.958 287.676 146.004 287.945 146.095L288.207 144.912C287.953 144.775 287.698 144.729 287.338 144.727C286.438 144.722 285.594 145.378 285.019 146.409L284.989 146.409L284.862 144.924L283.737 144.917L283.693 153.062ZM292.676 153.306C294.671 153.317 296.45 151.766 296.464 149.066C296.479 146.351 294.718 144.767 292.723 144.756C290.728 144.745 288.949 146.311 288.935 149.026C288.92 151.726 290.682 153.295 292.676 153.306ZM292.683 152.166C291.273 152.158 290.334 150.908 290.345 149.033C290.355 147.158 291.307 145.903 292.716 145.911C294.126 145.919 295.08 147.184 295.069 149.059C295.059 150.934 294.093 152.174 292.683 152.166ZM301.327 156.908C303.847 156.921 305.459 155.625 305.467 154.11C305.475 152.76 304.518 152.17 302.643 152.16L301.038 152.151C299.943 152.145 299.615 151.768 299.618 151.258C299.62 150.808 299.847 150.54 300.148 150.286C300.507 150.468 300.956 150.576 301.346 150.578C303.026 150.587 304.337 149.499 304.347 147.759C304.35 147.054 304.084 146.453 303.696 146.075L305.361 146.084L305.366 145.034L302.531 145.019C302.247 144.898 301.843 144.805 301.378 144.803C299.743 144.794 298.327 145.911 298.317 147.696C298.312 148.671 298.832 149.469 299.37 149.892L299.37 149.952C298.933 150.25 298.465 150.787 298.462 151.462C298.458 152.107 298.771 152.544 299.189 152.801L299.189 152.876C298.421 153.337 297.983 154.01 297.979 154.715C297.971 156.11 299.347 156.897 301.327 156.908ZM301.351 149.648C300.421 149.643 299.63 148.889 299.637 147.704C299.643 146.504 300.427 145.803 301.372 145.808C302.347 145.813 303.108 146.522 303.102 147.722C303.095 148.907 302.296 149.653 301.351 149.648ZM301.527 155.964C300.042 155.956 299.175 155.396 299.18 154.526C299.182 154.061 299.425 153.567 300.012 153.151C300.372 153.243 300.762 153.275 301.062 153.276L302.472 153.284C303.552 153.29 304.12 153.563 304.116 154.328C304.112 155.168 303.102 155.972 301.527 155.964ZM307.062 153.189L308.442 153.196L308.471 147.961C309.018 146.584 309.846 146.079 310.521 146.082C310.866 146.084 311.046 146.13 311.315 146.222L311.576 145.038C311.322 144.902 311.067 144.855 310.707 144.853C309.807 144.849 308.964 145.504 308.388 146.536L308.358 146.536L308.231 145.05L307.106 145.044L307.062 153.189ZM316.181 153.433C317.276 153.439 318.148 153.084 318.856 152.623L318.381 151.705C317.763 152.107 317.132 152.343 316.337 152.339C314.792 152.331 313.733 151.215 313.653 149.474L319.142 149.504C319.174 149.294 319.205 149.024 319.207 148.724C319.219 146.399 318.057 144.893 315.972 144.882C314.112 144.872 312.319 146.497 312.304 149.152C312.29 151.837 314.006 153.421 316.181 153.433ZM313.643 148.499C313.817 146.88 314.841 145.971 315.996 145.977C317.271 145.984 318.017 146.873 318.008 148.523L313.643 148.499ZM323.321 153.472C325.241 153.482 326.282 152.393 326.289 151.073C326.297 149.528 325.01 149.041 323.827 148.584C322.914 148.234 322.076 147.93 322.08 147.165C322.084 146.52 322.567 145.983 323.602 145.988C324.322 145.992 324.89 146.31 325.443 146.718L326.107 145.867C325.495 145.353 324.597 144.929 323.592 144.923C321.807 144.913 320.782 145.928 320.775 147.218C320.767 148.613 321.994 149.16 323.132 149.586C324.03 149.921 324.988 150.316 324.984 151.141C324.98 151.846 324.452 152.413 323.372 152.407C322.397 152.402 321.679 152.008 320.962 151.419L320.297 152.33C321.059 152.98 322.166 153.466 323.321 153.472ZM330.341 153.51C332.261 153.52 333.302 152.431 333.309 151.111C333.317 149.566 332.03 149.079 330.847 148.622C329.934 148.272 329.096 147.968 329.1 147.203C329.104 146.558 329.586 146.021 330.621 146.026C331.341 146.03 331.91 146.348 332.462 146.756L333.127 145.905C332.515 145.391 331.617 144.967 330.612 144.961C328.827 144.951 327.802 145.966 327.795 147.256C327.787 148.651 329.014 149.197 330.152 149.624C331.05 149.959 332.008 150.354 332.004 151.179C332 151.884 331.472 152.451 330.392 152.445C329.417 152.44 328.699 152.046 327.982 151.457L327.317 152.368C328.079 153.017 329.186 153.503 330.341 153.51Z">
</path>
</g>
<g filter="url(#filter_24)">
<rect  x="398.949951171875" y="224" width="355" height="131.00000000000003" rx="20"    fill="#FFFFFF" >
</rect>
</g>
<g >
<path     fill="#000000"  d="M508.846 268.56L510.606 268.56L512.35 261.488C512.542 260.56 512.766 259.712 512.942 258.816L513.006 258.816C513.198 259.712 513.374 260.56 513.582 261.488L515.358 268.56L517.15 268.56L519.566 256.832L518.158 256.832L516.894 263.216C516.686 264.48 516.462 265.744 516.254 267.024L516.158 267.024C515.87 265.744 515.614 264.464 515.326 263.216L513.694 256.832L512.334 256.832L510.718 263.216C510.43 264.48 510.142 265.744 509.886 267.024L509.822 267.024C509.582 265.744 509.358 264.48 509.118 263.216L507.886 256.832L506.366 256.832L508.846 268.56ZM524.846 268.768C526.974 268.768 528.862 267.104 528.862 264.224C528.862 261.328 526.974 259.648 524.846 259.648C522.718 259.648 520.83 261.328 520.83 264.224C520.83 267.104 522.718 268.768 524.846 268.768ZM524.846 267.552C523.342 267.552 522.334 266.224 522.334 264.224C522.334 262.224 523.342 260.88 524.846 260.88C526.35 260.88 527.374 262.224 527.374 264.224C527.374 266.224 526.35 267.552 524.846 267.552ZM531.166 268.56L532.638 268.56L532.638 262.976C533.214 261.504 534.094 260.96 534.814 260.96C535.182 260.96 535.374 261.008 535.662 261.104L535.934 259.84C535.662 259.696 535.39 259.648 535.006 259.648C534.046 259.648 533.15 260.352 532.542 261.456L532.51 261.456L532.366 259.872L531.166 259.872L531.166 268.56ZM537.374 268.56L538.814 268.56L538.814 266.272L540.446 264.368L542.99 268.56L544.574 268.56L541.294 263.376L544.19 259.872L542.558 259.872L538.878 264.448L538.814 264.448L538.814 255.824L537.374 255.824L537.374 268.56ZM550.167 272.224L551.639 272.224L551.639 269.28L551.591 267.76C552.375 268.416 553.207 268.768 553.991 268.768C555.975 268.768 557.767 267.056 557.767 264.08C557.767 261.392 556.551 259.648 554.311 259.648C553.303 259.648 552.327 260.224 551.543 260.88L551.511 260.88L551.367 259.872L550.167 259.872L550.167 272.224ZM553.751 267.536C553.175 267.536 552.407 267.312 551.639 266.64L551.639 262.064C552.471 261.296 553.223 260.88 553.943 260.88C555.607 260.88 556.247 262.16 556.247 264.096C556.247 266.24 555.191 267.536 553.751 267.536ZM560.087 268.56L561.559 268.56L561.559 262.976C562.135 261.504 563.015 260.96 563.735 260.96C564.103 260.96 564.295 261.008 564.583 261.104L564.855 259.84C564.583 259.696 564.311 259.648 563.927 259.648C562.967 259.648 562.071 260.352 561.463 261.456L561.431 261.456L561.287 259.872L560.087 259.872L560.087 268.56ZM569.671 268.768C571.799 268.768 573.687 267.104 573.687 264.224C573.687 261.328 571.799 259.648 569.671 259.648C567.543 259.648 565.655 261.328 565.655 264.224C565.655 267.104 567.543 268.768 569.671 268.768ZM569.671 267.552C568.167 267.552 567.159 266.224 567.159 264.224C567.159 262.224 568.167 260.88 569.671 260.88C571.175 260.88 572.199 262.224 572.199 264.224C572.199 266.224 571.175 267.552 569.671 267.552ZM578.919 272.56C581.607 272.56 583.319 271.168 583.319 269.552C583.319 268.112 582.295 267.488 580.295 267.488L578.583 267.488C577.415 267.488 577.063 267.088 577.063 266.544C577.063 266.064 577.303 265.776 577.623 265.504C578.007 265.696 578.487 265.808 578.903 265.808C580.695 265.808 582.087 264.64 582.087 262.784C582.087 262.032 581.799 261.392 581.383 260.992L583.159 260.992L583.159 259.872L580.135 259.872C579.831 259.744 579.399 259.648 578.903 259.648C577.159 259.648 575.655 260.848 575.655 262.752C575.655 263.792 576.215 264.64 576.791 265.088L576.791 265.152C576.327 265.472 575.831 266.048 575.831 266.768C575.831 267.456 576.167 267.92 576.615 268.192L576.615 268.272C575.799 268.768 575.335 269.488 575.335 270.24C575.335 271.728 576.807 272.56 578.919 272.56ZM578.903 264.816C577.911 264.816 577.063 264.016 577.063 262.752C577.063 261.472 577.895 260.72 578.903 260.72C579.943 260.72 580.759 261.472 580.759 262.752C580.759 264.016 579.911 264.816 578.903 264.816ZM579.127 271.552C577.543 271.552 576.615 270.96 576.615 270.032C576.615 269.536 576.871 269.008 577.495 268.56C577.879 268.656 578.295 268.688 578.615 268.688L580.119 268.688C581.271 268.688 581.879 268.976 581.879 269.792C581.879 270.688 580.807 271.552 579.127 271.552ZM585.015 268.56L586.487 268.56L586.487 262.976C587.063 261.504 587.943 260.96 588.663 260.96C589.031 260.96 589.223 261.008 589.511 261.104L589.783 259.84C589.511 259.696 589.239 259.648 588.855 259.648C587.895 259.648 586.999 260.352 586.391 261.456L586.359 261.456L586.215 259.872L585.015 259.872L585.015 268.56ZM594.743 268.768C595.911 268.768 596.839 268.384 597.591 267.888L597.079 266.912C596.423 267.344 595.751 267.6 594.903 267.6C593.255 267.6 592.119 266.416 592.023 264.56L597.879 264.56C597.911 264.336 597.943 264.048 597.943 263.728C597.943 261.248 596.695 259.648 594.471 259.648C592.487 259.648 590.583 261.392 590.583 264.224C590.583 267.088 592.423 268.768 594.743 268.768ZM592.007 263.52C592.183 261.792 593.271 260.816 594.503 260.816C595.863 260.816 596.663 261.76 596.663 263.52L592.007 263.52ZM602.359 268.768C604.407 268.768 605.511 267.6 605.511 266.192C605.511 264.544 604.135 264.032 602.871 263.552C601.895 263.184 600.999 262.864 600.999 262.048C600.999 261.36 601.511 260.784 602.615 260.784C603.383 260.784 603.991 261.12 604.583 261.552L605.287 260.64C604.631 260.096 603.671 259.648 602.599 259.648C600.695 259.648 599.607 260.736 599.607 262.112C599.607 263.6 600.919 264.176 602.135 264.624C603.095 264.976 604.119 265.392 604.119 266.272C604.119 267.024 603.559 267.632 602.407 267.632C601.367 267.632 600.599 267.216 599.831 266.592L599.127 267.568C599.943 268.256 601.127 268.768 602.359 268.768ZM609.847 268.768C611.895 268.768 612.999 267.6 612.999 266.192C612.999 264.544 611.623 264.032 610.359 263.552C609.383 263.184 608.487 262.864 608.487 262.048C608.487 261.36 608.999 260.784 610.103 260.784C610.871 260.784 611.479 261.12 612.071 261.552L612.775 260.64C612.119 260.096 611.159 259.648 610.087 259.648C608.183 259.648 607.095 260.736 607.095 262.112C607.095 263.6 608.407 264.176 609.623 264.624C610.583 264.976 611.607 265.392 611.607 266.272C611.607 267.024 611.047 267.632 609.895 267.632C608.855 267.632 608.087 267.216 607.319 266.592L606.615 267.568C607.431 268.256 608.615 268.768 609.847 268.768Z">
</path>
</g>
<g >
<path     fill="#A6A6A6"  d="M505.998 299.92L507.114 299.92L507.966 297.232L511.182 297.232L512.022 299.92L513.198 299.92L510.21 291.124L508.974 291.124L505.998 299.92ZM508.242 296.356L508.674 295C508.986 294.004 509.274 293.056 509.55 292.024L509.598 292.024C509.886 293.044 510.162 294.004 510.486 295L510.906 296.356L508.242 296.356ZM515.502 300.076C515.802 300.076 515.982 300.028 516.138 299.98L515.982 299.14C515.862 299.164 515.814 299.164 515.754 299.164C515.586 299.164 515.454 299.032 515.454 298.696L515.454 290.368L514.35 290.368L514.35 298.624C514.35 299.548 514.686 300.076 515.502 300.076ZM518.91 300.076C519.21 300.076 519.39 300.028 519.546 299.98L519.39 299.14C519.27 299.164 519.222 299.164 519.162 299.164C518.994 299.164 518.862 299.032 518.862 298.696L518.862 290.368L517.758 290.368L517.758 298.624C517.758 299.548 518.094 300.076 518.91 300.076ZM526.177 300.076C526.585 300.076 527.017 299.956 527.389 299.836L527.173 299.008C526.957 299.104 526.669 299.188 526.429 299.188C525.673 299.188 525.421 298.732 525.421 297.94L525.421 294.292L527.197 294.292L527.197 293.404L525.421 293.404L525.421 291.568L524.509 291.568L524.389 293.404L523.357 293.464L523.357 294.292L524.329 294.292L524.329 297.904C524.329 299.212 524.797 300.076 526.177 300.076ZM530.161 300.076C530.965 300.076 531.697 299.656 532.321 299.14L532.357 299.14L532.453 299.92L533.353 299.92L533.353 295.912C533.353 294.292 532.693 293.236 531.097 293.236C530.041 293.236 529.129 293.704 528.541 294.088L528.961 294.844C529.477 294.496 530.161 294.148 530.917 294.148C531.985 294.148 532.261 294.952 532.261 295.792C529.489 296.104 528.265 296.812 528.265 298.228C528.265 299.404 529.069 300.076 530.161 300.076ZM530.473 299.188C529.825 299.188 529.321 298.9 529.321 298.156C529.321 297.316 530.065 296.776 532.261 296.524L532.261 298.336C531.625 298.9 531.097 299.188 530.473 299.188ZM537.121 300.076C538.657 300.076 539.485 299.2 539.485 298.144C539.485 296.908 538.453 296.524 537.505 296.164C536.773 295.888 536.101 295.648 536.101 295.036C536.101 294.52 536.485 294.088 537.313 294.088C537.889 294.088 538.345 294.34 538.789 294.664L539.317 293.98C538.825 293.572 538.105 293.236 537.301 293.236C535.873 293.236 535.057 294.052 535.057 295.084C535.057 296.2 536.041 296.632 536.953 296.968C537.673 297.232 538.441 297.544 538.441 298.204C538.441 298.768 538.021 299.224 537.157 299.224C536.377 299.224 535.801 298.912 535.225 298.444L534.697 299.176C535.309 299.692 536.197 300.076 537.121 300.076ZM541.033 299.92L542.113 299.92L542.113 298.204L543.337 296.776L545.245 299.92L546.433 299.92L543.973 296.032L546.145 293.404L544.921 293.404L542.161 296.836L542.113 296.836L542.113 290.368L541.033 290.368L541.033 299.92ZM549.361 300.076C550.897 300.076 551.725 299.2 551.725 298.144C551.725 296.908 550.693 296.524 549.745 296.164C549.013 295.888 548.341 295.648 548.341 295.036C548.341 294.52 548.725 294.088 549.553 294.088C550.129 294.088 550.585 294.34 551.029 294.664L551.557 293.98C551.065 293.572 550.345 293.236 549.541 293.236C548.113 293.236 547.297 294.052 547.297 295.084C547.297 296.2 548.281 296.632 549.193 296.968C549.913 297.232 550.681 297.544 550.681 298.204C550.681 298.768 550.261 299.224 549.397 299.224C548.617 299.224 548.041 298.912 547.465 298.444L546.937 299.176C547.549 299.692 548.437 300.076 549.361 300.076ZM555.535 294.292L556.423 294.292L556.423 299.92L557.515 299.92L557.515 294.292L558.895 294.292L558.895 293.404L557.515 293.404L557.515 292.372C557.515 291.532 557.815 291.088 558.439 291.088C558.667 291.088 558.931 291.148 559.171 291.268L559.411 290.416C559.111 290.296 558.727 290.212 558.319 290.212C557.023 290.212 556.423 291.04 556.423 292.36L556.423 293.404L555.535 293.464L555.535 294.292ZM562.675 300.076C564.271 300.076 565.687 298.828 565.687 296.668C565.687 294.496 564.271 293.236 562.675 293.236C561.079 293.236 559.663 294.496 559.663 296.668C559.663 298.828 561.079 300.076 562.675 300.076ZM562.675 299.164C561.547 299.164 560.791 298.168 560.791 296.668C560.791 295.168 561.547 294.16 562.675 294.16C563.803 294.16 564.571 295.168 564.571 296.668C564.571 298.168 563.803 299.164 562.675 299.164ZM567.415 299.92L568.519 299.92L568.519 295.732C568.951 294.628 569.611 294.22 570.151 294.22C570.427 294.22 570.571 294.256 570.787 294.328L570.991 293.38C570.787 293.272 570.583 293.236 570.295 293.236C569.575 293.236 568.903 293.764 568.447 294.592L568.423 294.592L568.315 293.404L567.415 293.404L567.415 299.92ZM577.082 300.076C577.49 300.076 577.922 299.956 578.294 299.836L578.078 299.008C577.862 299.104 577.574 299.188 577.334 299.188C576.578 299.188 576.326 298.732 576.326 297.94L576.326 294.292L578.102 294.292L578.102 293.404L576.326 293.404L576.326 291.568L575.414 291.568L575.294 293.404L574.262 293.464L574.262 294.292L575.234 294.292L575.234 297.904C575.234 299.212 575.702 300.076 577.082 300.076ZM582.098 300.076C583.694 300.076 585.11 298.828 585.11 296.668C585.11 294.496 583.694 293.236 582.098 293.236C580.502 293.236 579.086 294.496 579.086 296.668C579.086 298.828 580.502 300.076 582.098 300.076ZM582.098 299.164C580.97 299.164 580.214 298.168 580.214 296.668C580.214 295.168 580.97 294.16 582.098 294.16C583.226 294.16 583.994 295.168 583.994 296.668C583.994 298.168 583.226 299.164 582.098 299.164ZM589.058 300.076C589.838 300.076 590.534 299.656 591.038 299.152L591.074 299.152L591.17 299.92L592.07 299.92L592.07 290.368L590.966 290.368L590.966 292.876L591.026 293.992C590.45 293.524 589.958 293.236 589.19 293.236C587.702 293.236 586.37 294.556 586.37 296.668C586.37 298.84 587.426 300.076 589.058 300.076ZM589.298 299.152C588.158 299.152 587.498 298.228 587.498 296.656C587.498 295.168 588.338 294.16 589.382 294.16C589.922 294.16 590.426 294.352 590.966 294.844L590.966 298.264C590.426 298.864 589.898 299.152 589.298 299.152ZM595.778 300.076C596.582 300.076 597.314 299.656 597.938 299.14L597.974 299.14L598.07 299.92L598.97 299.92L598.97 295.912C598.97 294.292 598.31 293.236 596.714 293.236C595.658 293.236 594.746 293.704 594.158 294.088L594.578 294.844C595.094 294.496 595.778 294.148 596.534 294.148C597.602 294.148 597.878 294.952 597.878 295.792C595.106 296.104 593.882 296.812 593.882 298.228C593.882 299.404 594.686 300.076 595.778 300.076ZM596.09 299.188C595.442 299.188 594.938 298.9 594.938 298.156C594.938 297.316 595.682 296.776 597.878 296.524L597.878 298.336C597.242 298.9 596.714 299.188 596.09 299.188ZM601.142 302.728C602.438 302.728 603.122 301.744 603.578 300.472L606.026 293.404L604.958 293.404L603.782 297.016C603.614 297.604 603.422 298.264 603.254 298.864L603.194 298.864C602.966 298.252 602.75 297.592 602.546 297.016L601.226 293.404L600.086 293.404L602.702 299.932L602.558 300.424C602.282 301.228 601.826 301.828 601.094 301.828C600.914 301.828 600.722 301.768 600.59 301.72L600.374 302.596C600.578 302.68 600.842 302.728 601.142 302.728ZM610.257 299.92L611.361 299.92L611.361 295.192C612.009 294.532 612.465 294.196 613.137 294.196C614.001 294.196 614.373 294.712 614.373 295.936L614.373 299.92L615.465 299.92L615.465 295.792C615.465 294.136 614.841 293.236 613.473 293.236C612.585 293.236 611.913 293.728 611.313 294.328L611.361 292.984L611.361 290.368L610.257 290.368L610.257 299.92ZM619.041 300.076C619.845 300.076 620.577 299.656 621.201 299.14L621.237 299.14L621.333 299.92L622.233 299.92L622.233 295.912C622.233 294.292 621.573 293.236 619.977 293.236C618.921 293.236 618.009 293.704 617.421 294.088L617.841 294.844C618.357 294.496 619.041 294.148 619.797 294.148C620.865 294.148 621.141 294.952 621.141 295.792C618.369 296.104 617.145 296.812 617.145 298.228C617.145 299.404 617.949 300.076 619.041 300.076ZM619.353 299.188C618.705 299.188 618.201 298.9 618.201 298.156C618.201 297.316 618.945 296.776 621.141 296.524L621.141 298.336C620.505 298.9 619.977 299.188 619.353 299.188ZM625.701 299.92L626.985 299.92L629.289 293.404L628.209 293.404L626.973 297.112C626.781 297.748 626.565 298.408 626.373 299.032L626.313 299.032C626.121 298.408 625.917 297.748 625.713 297.112L624.489 293.404L623.349 293.404L625.701 299.92ZM633.189 300.076C634.065 300.076 634.761 299.788 635.325 299.416L634.941 298.684C634.449 299.008 633.945 299.2 633.309 299.2C632.073 299.2 631.221 298.312 631.149 296.92L635.541 296.92C635.565 296.752 635.589 296.536 635.589 296.296C635.589 294.436 634.653 293.236 632.985 293.236C631.497 293.236 630.069 294.544 630.069 296.668C630.069 298.816 631.449 300.076 633.189 300.076ZM631.137 296.14C631.269 294.844 632.085 294.112 633.009 294.112C634.029 294.112 634.629 294.82 634.629 296.14L631.137 296.14ZM643.035 300.076C644.523 300.076 645.867 298.792 645.867 296.56C645.867 294.544 644.955 293.236 643.275 293.236C642.543 293.236 641.823 293.644 641.223 294.148L641.271 292.984L641.271 290.368L640.167 290.368L640.167 299.92L641.043 299.92L641.139 299.248L641.187 299.248C641.751 299.764 642.435 300.076 643.035 300.076ZM642.855 299.152C642.423 299.152 641.835 298.984 641.271 298.48L641.271 295.048C641.883 294.472 642.459 294.16 642.999 294.16C644.247 294.16 644.727 295.12 644.727 296.572C644.727 298.18 643.935 299.152 642.855 299.152ZM650.223 300.076C651.099 300.076 651.795 299.788 652.359 299.416L651.975 298.684C651.483 299.008 650.979 299.2 650.343 299.2C649.107 299.2 648.255 298.312 648.183 296.92L652.575 296.92C652.599 296.752 652.623 296.536 652.623 296.296C652.623 294.436 651.688 293.236 650.019 293.236C648.531 293.236 647.103 294.544 647.103 296.668C647.103 298.816 648.483 300.076 650.223 300.076ZM648.171 296.14C648.303 294.844 649.119 294.112 650.043 294.112C651.063 294.112 651.663 294.82 651.663 296.14L648.171 296.14ZM656.871 300.076C657.747 300.076 658.443 299.788 659.007 299.416L658.623 298.684C658.131 299.008 657.627 299.2 656.991 299.2C655.755 299.2 654.903 298.312 654.831 296.92L659.223 296.92C659.247 296.752 659.271 296.536 659.271 296.296C659.271 294.436 658.335 293.236 656.667 293.236C655.179 293.236 653.751 294.544 653.751 296.668C653.751 298.816 655.131 300.076 656.871 300.076ZM654.819 296.14C654.951 294.844 655.767 294.112 656.691 294.112C657.711 294.112 658.311 294.82 658.311 296.14L654.819 296.14ZM660.879 299.92L661.983 299.92L661.983 295.192C662.631 294.532 663.087 294.196 663.759 294.196C664.623 294.196 664.995 294.712 664.995 295.936L664.995 299.92L666.087 299.92L666.087 295.792C666.087 294.136 665.464 293.236 664.095 293.236C663.207 293.236 662.523 293.728 661.911 294.352L661.887 294.352L661.779 293.404L660.879 293.404L660.879 299.92ZM673.738 300.076C674.518 300.076 675.262 299.764 675.85 299.26L675.37 298.516C674.962 298.876 674.434 299.164 673.834 299.164C672.634 299.164 671.818 298.168 671.818 296.668C671.818 295.168 672.682 294.16 673.87 294.16C674.374 294.16 674.794 294.388 675.166 294.724L675.718 294.004C675.262 293.596 674.674 293.236 673.822 293.236C672.142 293.236 670.69 294.496 670.69 296.668C670.69 298.828 672.01 300.076 673.738 300.076ZM679.822 300.076C681.418 300.076 682.834 298.828 682.834 296.668C682.834 294.496 681.418 293.236 679.822 293.236C678.226 293.236 676.81 294.496 676.81 296.668C676.81 298.828 678.226 300.076 679.822 300.076ZM679.822 299.164C678.694 299.164 677.938 298.168 677.938 296.668C677.938 295.168 678.694 294.16 679.822 294.16C680.95 294.16 681.718 295.168 681.718 296.668C681.718 298.168 680.95 299.164 679.822 299.164ZM684.562 299.92L685.666 299.92L685.666 295.192C686.254 294.52 686.806 294.196 687.298 294.196C688.126 294.196 688.51 294.712 688.51 295.936L688.51 299.92L689.602 299.92L689.602 295.192C690.214 294.52 690.742 294.196 691.246 294.196C692.074 294.196 692.458 294.712 692.458 295.936L692.458 299.92L693.55 299.92L693.55 295.792C693.55 294.136 692.914 293.236 691.582 293.236C690.778 293.236 690.106 293.752 689.422 294.484C689.158 293.716 688.63 293.236 687.622 293.236C686.842 293.236 686.17 293.728 685.594 294.352L685.57 294.352L685.462 293.404L684.562 293.404L684.562 299.92ZM695.674 302.668L696.778 302.668L696.778 300.46L696.742 299.32C697.33 299.812 697.954 300.076 698.542 300.076C700.03 300.076 701.374 298.792 701.374 296.56C701.374 294.544 700.462 293.236 698.782 293.236C698.026 293.236 697.294 293.668 696.706 294.16L696.682 294.16L696.574 293.404L695.674 293.404L695.674 302.668ZM698.362 299.152C697.93 299.152 697.354 298.984 696.778 298.48L696.778 295.048C697.402 294.472 697.966 294.16 698.506 294.16C699.754 294.16 700.234 295.12 700.234 296.572C700.234 298.18 699.442 299.152 698.362 299.152ZM704.266 300.076C704.566 300.076 704.746 300.028 704.902 299.98L704.746 299.14C704.626 299.164 704.578 299.164 704.518 299.164C704.35 299.164 704.218 299.032 704.218 298.696L704.218 290.368L703.114 290.368L703.114 298.624C703.114 299.548 703.45 300.076 704.266 300.076ZM709.162 300.076C710.038 300.076 710.734 299.788 711.298 299.416L710.914 298.684C710.422 299.008 709.918 299.2 709.282 299.2C708.046 299.2 707.194 298.312 707.122 296.92L711.514 296.92C711.538 296.752 711.562 296.536 711.562 296.296C711.562 294.436 710.626 293.236 708.958 293.236C707.47 293.236 706.042 294.544 706.042 296.668C706.042 298.816 707.422 300.076 709.162 300.076ZM707.11 296.14C707.242 294.844 708.058 294.112 708.982 294.112C710.002 294.112 710.602 294.82 710.602 296.14L707.11 296.14ZM715.21 300.076C715.618 300.076 716.05 299.956 716.422 299.836L716.206 299.008C715.99 299.104 715.702 299.188 715.462 299.188C714.706 299.188 714.454 298.732 714.454 297.94L714.454 294.292L716.23 294.292L716.23 293.404L714.454 293.404L714.454 291.568L713.542 291.568L713.422 293.404L712.39 293.464L712.39 294.292L713.362 294.292L713.362 297.904C713.362 299.212 713.83 300.076 715.21 300.076ZM720.334 300.076C721.21 300.076 721.906 299.788 722.47 299.416L722.086 298.684C721.594 299.008 721.09 299.2 720.454 299.2C719.218 299.2 718.366 298.312 718.294 296.92L722.686 296.92C722.71 296.752 722.734 296.536 722.734 296.296C722.734 294.436 721.798 293.236 720.13 293.236C718.642 293.236 717.214 294.544 717.214 296.668C717.214 298.816 718.594 300.076 720.334 300.076ZM718.282 296.14C718.414 294.844 719.23 294.112 720.154 294.112C721.174 294.112 721.774 294.82 721.774 296.14L718.282 296.14ZM726.562 300.076C727.342 300.076 728.038 299.656 728.542 299.152L728.578 299.152L728.674 299.92L729.574 299.92L729.574 290.368L728.47 290.368L728.47 292.876L728.53 293.992C727.954 293.524 727.462 293.236 726.694 293.236C725.206 293.236 723.874 294.556 723.874 296.668C723.874 298.84 724.93 300.076 726.562 300.076ZM726.802 299.152C725.662 299.152 725.002 298.228 725.002 296.656C725.002 295.168 725.842 294.16 726.886 294.16C727.426 294.16 727.93 294.352 728.47 294.844L728.47 298.264C727.93 298.864 727.402 299.152 726.802 299.152Z">
</path>
</g>
<rect  x="422.949951171875" y="329" width="307" height="6" rx="8"    fill="#EDEDED" >
</rect>
<path     fill="#03bf8a"  d="M425.95 329L623.95 329L623.95 335L425.95 335C424.293 335 422.95 333.657 422.95 332L422.95 332C422.95 330.343 424.293 329 425.95 329Z">
</path>
<circle cx="457.949951171875" cy="278" r="35"   fill="#defff6" >
</circle>
<path d="M446.753 281.248L452.136 286.824C452.875 287.592 454.081 287.592 454.824 286.827C454.838 286.812 454.844 286.791 454.858 286.775L469.146 271.965C469.885 271.193 469.885 269.947 469.145 269.175C468.404 268.407 467.197 268.407 466.457 269.179L453.473 282.634L449.445 278.462C448.701 277.692 447.497 277.692 446.753 278.461C446.015 279.229 446.015 280.475 446.753 281.248Z"   fill="#03bf8a" >
</path>
<g filter="url(#filter_31)">
<rect  x="30.87255859375" y="408.000244140625" width="285" height="170.2083653838332" transform="rotate(0.3100000079929992 30.87255859375 408.000244140625)" rx="20"    fill="#FFFFFF" >
</rect>
</g>
<g >
<path     fill="#999999"  d="M82.2566 541.551C83.0406 541.555 83.6901 541.271 84.0682 540.881L84.0816 538.417L82.1536 538.407L82.1503 539.023L83.3983 539.029L83.3899 540.565C83.1568 540.78 82.7481 540.906 82.3321 540.904C81.0761 540.897 80.3771 539.965 80.3852 538.485C80.3931 537.021 81.166 536.121 82.3499 536.128C82.9339 536.131 83.3166 536.381 83.6109 536.686L84.0135 536.209C83.6794 535.855 83.1454 535.484 82.3294 535.479C80.7775 535.471 79.6353 536.609 79.625 538.505C79.6147 540.409 80.7126 541.543 82.2566 541.551ZM87.1525 541.578C87.7365 541.581 88.2015 541.391 88.5789 541.145L88.3255 540.656C87.9964 540.87 87.6597 540.996 87.2357 540.994C86.4117 540.99 85.8469 540.395 85.8039 539.466L88.7319 539.482C88.7485 539.37 88.7653 539.226 88.7661 539.066C88.7728 537.826 88.1532 537.023 87.0412 537.017C86.0492 537.012 85.0925 537.878 85.0848 539.294C85.0771 540.726 85.9925 541.571 87.1525 541.578ZM85.7987 538.946C85.8914 538.083 86.438 537.598 87.054 537.601C87.734 537.605 88.1315 538.079 88.1267 538.959L85.7987 538.946ZM89.825 541.488L90.561 541.492L90.5781 538.34C91.0125 537.903 91.3177 537.68 91.7657 537.683C92.3417 537.686 92.5878 538.031 92.5834 538.847L92.569 541.503L93.297 541.507L93.3119 538.755C93.3179 537.651 92.9051 537.049 91.9931 537.044C91.4011 537.041 90.9434 537.366 90.5331 537.78L90.5171 537.78L90.4485 537.147L89.8485 537.144L89.825 541.488ZM96.4644 541.628C97.0484 541.631 97.5134 541.442 97.8907 541.196L97.6374 540.706C97.3082 540.921 96.9715 541.047 96.5475 541.044C95.7236 541.04 95.1588 540.445 95.1158 539.517L98.0437 539.533C98.0603 539.421 98.0771 539.277 98.078 539.117C98.0847 537.877 97.465 537.073 96.3531 537.067C95.3611 537.062 94.4044 537.929 94.3967 539.345C94.389 540.777 95.3044 541.622 96.4644 541.628ZM95.1106 538.997C95.2033 538.133 95.7499 537.648 96.3659 537.651C97.0459 537.655 97.4433 538.129 97.4386 539.009L95.1106 538.997ZM99.1369 541.539L99.8729 541.543L99.888 538.751C100.18 538.016 100.621 537.747 100.981 537.748C101.165 537.749 101.261 537.774 101.405 537.823L101.544 537.191C101.409 537.119 101.273 537.094 101.081 537.093C100.601 537.09 100.151 537.44 99.8441 537.99L99.8281 537.99L99.7604 537.198L99.1604 537.195L99.1369 541.539ZM103.24 541.665C103.776 541.668 104.266 541.39 104.684 541.049L104.708 541.049L104.769 541.569L105.369 541.572L105.383 538.9C105.389 537.82 104.953 537.114 103.889 537.108C103.185 537.104 102.575 537.413 102.182 537.667L102.459 538.172C102.804 537.942 103.262 537.713 103.766 537.716C104.478 537.719 104.659 538.256 104.656 538.816C102.807 539.014 101.988 539.482 101.983 540.426C101.979 541.21 102.512 541.661 103.24 541.665ZM103.451 541.074C103.019 541.072 102.685 540.878 102.687 540.382C102.69 539.822 103.188 539.464 104.653 539.304L104.647 540.512C104.221 540.886 103.867 541.076 103.451 541.074ZM107.512 541.688C107.712 541.689 107.832 541.658 107.937 541.626L107.836 541.066C107.756 541.081 107.724 541.081 107.684 541.081C107.572 541.08 107.484 540.992 107.485 540.768L107.515 535.216L106.779 535.212L106.749 540.716C106.746 541.332 106.968 541.685 107.512 541.688ZM112.357 541.714C112.629 541.716 112.917 541.637 113.165 541.558L113.024 541.006C112.88 541.069 112.688 541.124 112.528 541.123C112.024 541.12 111.857 540.815 111.86 540.287L111.873 537.855L113.057 537.862L113.061 537.27L111.877 537.263L111.883 536.039L111.275 536.036L111.189 537.26L110.5 537.296L110.498 537.848L111.146 537.851L111.132 540.259C111.128 541.131 111.437 541.709 112.357 541.714ZM115.013 541.728C115.549 541.731 116.038 541.454 116.456 541.112L116.48 541.112L116.541 541.633L117.141 541.636L117.156 538.964C117.161 537.884 116.725 537.178 115.661 537.172C114.957 537.168 114.348 537.477 113.954 537.731L114.231 538.236C114.577 538.006 115.034 537.776 115.538 537.779C116.25 537.783 116.431 538.32 116.428 538.88C114.579 539.078 113.76 539.546 113.755 540.49C113.751 541.274 114.285 541.724 115.013 541.728ZM115.224 541.138C114.792 541.135 114.457 540.941 114.46 540.445C114.463 539.885 114.96 539.528 116.425 539.368L116.419 540.576C115.993 540.95 115.64 541.14 115.224 541.138ZM119.653 541.754C120.676 541.759 121.232 541.178 121.235 540.474C121.24 539.65 120.553 539.39 119.923 539.147C119.436 538.96 118.988 538.798 118.991 538.39C118.993 538.046 119.25 537.759 119.802 537.762C120.186 537.764 120.489 537.934 120.784 538.152L121.138 537.698C120.812 537.424 120.333 537.197 119.797 537.194C118.845 537.189 118.298 537.73 118.295 538.418C118.291 539.162 118.945 539.454 119.552 539.681C120.031 539.86 120.542 540.07 120.539 540.51C120.537 540.886 120.256 541.189 119.68 541.186C119.16 541.183 118.777 540.973 118.394 540.659L118.04 541.145C118.446 541.491 119.037 541.75 119.653 541.754ZM122.261 541.664L122.981 541.668L122.987 540.524L123.808 539.576L125.069 541.679L125.861 541.683L124.235 539.082L125.692 537.338L124.876 537.334L123.024 539.612L122.992 539.612L123.015 535.3L122.295 535.296L122.261 541.664ZM127.812 541.798C128.836 541.803 129.392 541.222 129.395 540.518C129.4 539.694 128.713 539.435 128.082 539.191C127.596 539.004 127.148 538.842 127.151 538.434C127.152 538.09 127.41 537.803 127.962 537.806C128.346 537.809 128.649 537.978 128.944 538.196L129.298 537.742C128.972 537.468 128.493 537.241 127.957 537.238C127.005 537.233 126.458 537.774 126.454 538.462C126.45 539.206 127.105 539.498 127.712 539.725C128.191 539.904 128.702 540.114 128.699 540.554C128.697 540.93 128.415 541.233 127.839 541.23C127.319 541.227 126.937 541.017 126.554 540.703L126.2 541.189C126.606 541.535 127.196 541.794 127.812 541.798Z">
</path>
</g>
<g >
<path     fill="#151522"  d="M55.2245 514.489L74.5202 514.594L74.54 510.946L67.4841 510.907L67.6547 479.372L64.2947 479.354C62.3688 480.447 60.1084 481.251 56.9854 481.81L56.9703 484.594L63.2582 484.628L63.1161 510.884L55.2443 510.841L55.2245 514.489ZM79.7522 514.622L101.88 514.742L101.9 510.95L92.1565 510.897C90.3805 510.887 88.2195 511.068 86.3948 511.202C94.693 503.423 100.3 496.301 100.338 489.245C100.372 483.005 96.4097 478.903 90.1217 478.869C85.6578 478.845 82.575 480.845 79.7261 483.949L82.2566 486.459C84.2373 484.118 86.6946 482.403 89.5745 482.419C93.9425 482.442 96.0386 485.382 96.0168 489.414C95.9841 495.461 90.8582 502.442 79.7662 512.03L79.7522 514.622ZM117.62 515.451C124.292 515.487 128.597 509.462 128.663 497.174C128.729 484.982 124.489 479.055 117.817 479.019C111.097 478.983 106.842 484.864 106.776 497.056C106.709 509.344 110.9 515.414 117.62 515.451ZM117.639 511.899C113.656 511.877 110.944 507.399 111 497.079C111.055 486.807 113.815 482.454 117.799 482.475C121.783 482.497 124.495 486.88 124.439 497.151C124.383 507.471 121.623 511.92 117.639 511.899ZM144.26 515.595C150.932 515.631 155.236 509.606 155.303 497.318C155.369 485.127 151.129 479.2 144.457 479.163C137.737 479.127 133.481 485.008 133.415 497.2C133.349 509.488 137.54 515.559 144.26 515.595ZM144.279 512.043C140.295 512.021 137.583 507.543 137.639 497.223C137.695 486.951 140.454 482.598 144.438 482.619C148.422 482.641 151.135 487.024 151.079 497.296C151.023 507.615 148.263 512.065 144.279 512.043Z">
</path>
</g>
<g >
<path     fill="#171725"  d="M54.5935 456.548L55.9734 456.556L55.9971 452.176L57.8121 452.186C60.2271 452.199 61.8678 451.142 61.8804 448.818C61.8934 446.418 60.2479 445.584 57.7879 445.57L54.6529 445.553L54.5935 456.548ZM56.0032 451.051L56.0268 446.686L57.6018 446.694C59.5368 446.705 60.5091 447.205 60.5004 448.81C60.4919 450.385 59.5732 451.07 57.6382 451.06L56.0032 451.051ZM63.9533 456.599L65.3333 456.606L65.3616 451.371C65.9091 449.994 66.7368 449.489 67.4118 449.492C67.7568 449.494 67.9366 449.54 68.2061 449.632L68.4675 448.448C68.2132 448.312 67.9585 448.265 67.5985 448.263C66.6985 448.259 65.8549 448.914 65.2793 449.946L65.2493 449.946L65.1224 448.46L63.9974 448.454L63.9533 456.599ZM72.9371 456.842C74.9321 456.853 76.7105 455.303 76.7251 452.603C76.7398 449.888 74.9784 448.303 72.9834 448.293C70.9884 448.282 69.2099 449.847 69.1952 452.562C69.1806 455.262 70.9422 456.832 72.9371 456.842ZM72.9433 455.702C71.5333 455.695 70.5951 454.445 70.6052 452.57C70.6154 450.695 71.5672 449.44 72.9771 449.448C74.3871 449.455 75.3403 450.72 75.3301 452.595C75.32 454.47 74.3533 455.71 72.9433 455.702ZM81.5878 460.444C84.1077 460.458 85.7198 459.162 85.728 457.647C85.7353 456.297 84.7785 455.707 82.9035 455.696L81.2985 455.688C80.2035 455.682 79.8755 455.305 79.8783 454.795C79.8807 454.345 80.1072 454.076 80.4086 453.823C80.7676 454.005 81.217 454.112 81.607 454.114C83.287 454.123 84.5979 453.035 84.6073 451.296C84.6111 450.591 84.3444 449.989 83.9564 449.612L85.6214 449.621L85.6271 448.571L82.7921 448.556C82.5078 448.434 82.1033 448.342 81.6383 448.339C80.0033 448.331 78.5872 449.448 78.5776 451.233C78.5723 452.208 79.093 453.006 79.6307 453.429L79.6304 453.489C79.1938 453.786 78.7258 454.324 78.7222 454.999C78.7187 455.644 79.0313 456.08 79.45 456.338L79.4496 456.413C78.6821 456.874 78.2434 457.546 78.2396 458.251C78.232 459.646 79.6078 460.434 81.5878 460.444ZM81.6121 453.184C80.6821 453.179 79.8911 452.425 79.8975 451.24C79.904 450.04 80.6878 449.339 81.6328 449.344C82.6078 449.35 83.369 450.059 83.3625 451.259C83.3561 452.444 82.557 453.189 81.6121 453.184ZM81.7879 459.5C80.3029 459.492 79.4359 458.933 79.4406 458.063C79.4431 457.598 79.6858 457.104 80.2731 456.687C80.6326 456.779 81.0224 456.811 81.3224 456.813L82.7324 456.82C83.8124 456.826 84.3809 457.099 84.3768 457.864C84.3722 458.704 83.3629 459.509 81.7879 459.5ZM87.323 456.725L88.703 456.733L88.7313 451.498C89.2787 450.121 90.1065 449.615 90.7815 449.619C91.1265 449.621 91.3062 449.667 91.5757 449.758L91.8371 448.575C91.5829 448.438 91.3281 448.392 90.9681 448.39C90.0681 448.385 89.2246 449.04 88.649 450.072L88.619 450.072L88.492 448.586L87.3671 448.58L87.323 456.725ZM96.4418 456.97C97.5368 456.976 98.4087 456.62 99.1162 456.159L98.6412 455.241C98.024 455.643 97.3927 455.88 96.5977 455.875C95.0527 455.867 93.9938 454.751 93.9132 453.011L99.4031 453.041C99.4342 452.831 99.4657 452.561 99.4673 452.261C99.4799 449.936 98.318 448.43 96.233 448.418C94.3731 448.408 92.5793 450.034 92.5649 452.689C92.5504 455.374 94.2668 456.958 96.4418 456.97ZM93.9034 452.036C94.0772 450.417 95.1021 449.507 96.2571 449.514C97.5321 449.52 98.2773 450.409 98.2684 452.059L93.9034 452.036ZM103.582 457.008C105.502 457.019 106.543 455.929 106.55 454.609C106.558 453.064 105.271 452.577 104.088 452.121C103.175 451.771 102.337 451.466 102.341 450.701C102.344 450.056 102.827 449.519 103.862 449.525C104.582 449.529 105.15 449.847 105.703 450.255L106.368 449.403C105.756 448.89 104.858 448.465 103.853 448.46C102.068 448.45 101.042 449.464 101.035 450.754C101.028 452.149 102.255 452.696 103.393 453.122C104.291 453.457 105.249 453.852 105.244 454.677C105.241 455.382 104.712 455.949 103.632 455.944C102.657 455.938 101.94 455.544 101.223 454.955L100.558 455.867C101.319 456.516 102.427 457.002 103.582 457.008ZM110.602 457.046C112.522 457.057 113.562 455.967 113.57 454.647C113.578 453.102 112.291 452.615 111.108 452.159C110.195 451.809 109.357 451.504 109.361 450.739C109.364 450.094 109.847 449.557 110.882 449.563C111.602 449.567 112.17 449.885 112.723 450.293L113.388 449.441C112.776 448.928 111.878 448.503 110.873 448.498C109.088 448.488 108.062 449.502 108.055 450.792C108.048 452.187 109.275 452.734 110.413 453.16C111.311 453.495 112.269 453.89 112.264 454.715C112.26 455.42 111.732 455.987 110.652 455.982C109.677 455.976 108.959 455.582 108.243 454.993L107.578 455.905C108.339 456.554 109.447 457.04 110.602 457.046ZM123.48 457.116C124.905 457.124 125.988 456.559 126.863 455.559L126.103 454.67C125.394 455.446 124.596 455.907 123.546 455.901C121.446 455.89 120.136 454.143 120.151 451.368C120.166 448.623 121.57 446.935 123.64 446.947C124.585 446.952 125.302 447.376 125.884 447.994L126.639 447.098C126.013 446.389 124.966 445.739 123.631 445.732C120.841 445.716 118.745 447.85 118.726 451.405C118.706 454.975 120.735 457.101 123.48 457.116ZM128.776 456.95L130.156 456.957L130.188 451.047C131.002 450.227 131.574 449.81 132.414 449.814C133.494 449.82 133.956 450.467 133.948 451.997L133.921 456.977L135.286 456.985L135.314 451.825C135.325 449.755 134.551 448.626 132.841 448.616C131.731 448.61 130.888 449.221 130.134 449.967L130.203 448.287L130.22 445.017L128.84 445.01L128.776 456.95ZM139.755 457.204C140.76 457.209 141.677 456.689 142.461 456.049L142.506 456.049L142.621 457.024L143.746 457.031L143.773 452.021C143.784 449.996 142.966 448.671 140.971 448.66C139.651 448.653 138.508 449.232 137.77 449.708L138.29 450.656C138.937 450.224 139.795 449.794 140.74 449.799C142.075 449.806 142.414 450.813 142.408 451.863C138.941 452.234 137.407 453.111 137.397 454.881C137.389 456.351 138.39 457.197 139.755 457.204ZM140.151 456.096C139.341 456.092 138.712 455.728 138.718 454.798C138.723 453.748 139.657 453.078 142.404 452.778L142.391 455.043C141.592 455.744 140.931 456.1 140.151 456.096ZM146.325 457.045L147.705 457.052L147.734 451.817C148.281 450.44 149.109 449.934 149.784 449.938C150.129 449.94 150.309 449.986 150.578 450.077L150.84 448.894C150.585 448.757 150.331 448.711 149.971 448.709C149.071 448.704 148.227 449.36 147.651 450.392L147.621 450.391L147.495 448.906L146.37 448.9L146.325 457.045ZM154.694 457.285C155.204 457.288 155.745 457.141 156.211 456.993L155.947 455.957C155.676 456.075 155.315 456.178 155.015 456.177C154.07 456.171 153.758 455.6 153.764 454.61L153.788 450.05L156.008 450.062L156.014 448.952L153.794 448.94L153.807 446.645L152.667 446.639L152.504 448.933L151.214 449.001L151.208 450.036L152.423 450.042L152.399 454.557C152.39 456.192 152.969 457.275 154.694 457.285Z">
</path>
</g>
<path     fill="#03bf8a"  d="M273.898 542.503L274.183 489.747C274.193 487.956 272.748 486.496 270.957 486.486C269.165 486.476 267.705 487.921 267.696 489.712L267.41 542.468L273.898 542.503Z">
</path>
<path     fill="#96C0FF"  d="M263.466 542.446L263.655 507.43C263.665 505.639 262.221 504.179 260.429 504.169C258.638 504.16 257.178 505.604 257.168 507.395L256.979 542.411L263.466 542.446Z">
</path>
<path     fill="#03bf8a"  d="M254.91 542.4L255.155 496.954C255.165 495.162 253.721 493.702 251.929 493.692C250.138 493.683 248.678 495.127 248.668 496.919L248.422 542.365L254.91 542.4Z">
</path>
<path     fill="#96C0FF"  d="M244.478 542.344L244.611 517.769C244.62 515.978 243.176 514.518 241.385 514.508C239.593 514.498 238.133 515.943 238.123 517.734L237.99 542.309L244.478 542.344Z">
</path>
<path     fill="#03bf8a"  d="M235.922 542.286L236.13 503.797C236.14 502.006 234.695 500.546 232.904 500.536C231.112 500.526 229.652 501.971 229.643 503.762L229.434 542.251L235.922 542.286Z">
</path>
<path     fill="#96C0FF"  d="M225.49 542.23L225.642 514.171C225.652 512.38 224.207 510.92 222.416 510.91C220.624 510.9 219.164 512.345 219.155 514.136L219.003 542.195L225.49 542.23Z">
</path>
<path     fill="#03bf8a"  d="M216.934 542.184L217.199 493.264C217.208 491.473 215.764 490.013 213.972 490.003C212.181 489.993 210.721 491.438 210.711 493.229L210.447 542.149L216.934 542.184Z">
</path>
<path     fill="#96C0FF"  d="M206.502 542.138L206.729 500.165C206.739 498.374 205.295 496.913 203.503 496.904C201.712 496.894 200.252 498.338 200.242 500.13L200.015 542.103L206.502 542.138Z">
</path>
<path     fill="#03bf8a"  d="M292.961 542.606L293.246 489.926C293.256 488.093 291.778 486.599 289.945 486.589C288.112 486.579 286.617 488.057 286.608 489.89L286.323 542.57L292.961 542.606Z">
</path>
<path     fill="#96C0FF"  d="M282.529 542.539L282.662 518.039C282.672 516.206 281.194 514.712 279.361 514.702C277.528 514.693 276.033 516.17 276.024 518.004L275.891 542.503L282.529 542.539Z">
</path>
<path     fill="#03bf8a"  d="M197.946 542.092L198.173 500.119C198.183 498.327 196.739 496.867 194.947 496.857C193.156 496.848 191.695 498.292 191.686 500.084L191.459 542.057L197.946 542.092Z">
</path>
<path     fill="#96C0FF"  d="M187.515 542.025L187.648 517.45C187.657 515.659 186.213 514.198 184.421 514.189C182.63 514.179 181.17 515.623 181.16 517.415L181.027 541.989L187.515 542.025Z">
</path>
<g >
<path     fill="#999999"  d="M194.392 454.46C195.195 454.464 195.834 454.204 196.353 453.865L196.005 453.192C195.552 453.487 195.089 453.661 194.506 453.657C193.373 453.651 192.597 452.833 192.538 451.557L196.564 451.578C196.586 451.425 196.61 451.227 196.611 451.007C196.62 449.302 195.768 448.197 194.239 448.189C192.875 448.181 191.56 449.373 191.549 451.32C191.538 453.289 192.797 454.451 194.392 454.46ZM192.531 450.842C192.658 449.654 193.41 448.987 194.257 448.992C195.192 448.997 195.738 449.649 195.732 450.859L192.531 450.842ZM197.446 449.174L198.26 449.179L198.232 454.338L199.233 454.343L199.261 449.184L200.526 449.191L200.53 448.377L199.265 448.37L199.27 447.424C199.274 446.654 199.552 446.249 200.124 446.252C200.333 446.253 200.574 446.309 200.794 446.42L201.018 445.641C200.743 445.529 200.392 445.45 200.018 445.448C198.83 445.442 198.276 446.198 198.269 447.408L198.264 448.365L197.45 448.415L197.446 449.174ZM201.021 449.194L201.835 449.198L201.807 454.357L202.808 454.362L202.836 449.203L204.101 449.21L204.105 448.396L202.84 448.389L202.845 447.443C202.849 446.673 203.126 446.268 203.698 446.271C203.907 446.272 204.149 446.328 204.369 446.44L204.593 445.66C204.318 445.548 203.967 445.469 203.593 445.467C202.405 445.461 201.851 446.217 201.844 447.427L201.839 448.384L201.025 448.435L201.021 449.194ZM205.217 454.375L206.229 454.381L206.261 448.408L205.249 448.402L205.217 454.375ZM205.762 447.173C206.158 447.175 206.434 446.913 206.436 446.506C206.438 446.121 206.165 445.855 205.769 445.853C205.373 445.851 205.107 446.114 205.105 446.499C205.103 446.906 205.366 447.171 205.762 447.173ZM210.595 454.547C211.31 454.551 211.993 454.269 212.535 453.81L212.099 453.126C211.723 453.454 211.237 453.715 210.687 453.712C209.587 453.706 208.844 452.789 208.852 451.414C208.859 450.039 209.656 449.119 210.745 449.125C211.207 449.128 211.591 449.339 211.93 449.649L212.44 448.991C212.024 448.615 211.487 448.282 210.706 448.278C209.166 448.27 207.829 449.417 207.818 451.408C207.807 453.388 209.011 454.539 210.595 454.547ZM213.852 454.422L214.864 454.428L214.896 448.455L213.884 448.449L213.852 454.422ZM214.396 447.22C214.792 447.222 215.069 446.96 215.071 446.553C215.073 446.168 214.8 445.902 214.404 445.9C214.008 445.898 213.742 446.16 213.74 446.545C213.738 446.952 214.001 447.218 214.396 447.22ZM219.296 454.595C220.099 454.599 220.738 454.338 221.257 454L220.909 453.327C220.456 453.622 219.993 453.795 219.41 453.792C218.277 453.786 217.5 452.968 217.441 451.691L221.467 451.713C221.49 451.559 221.513 451.361 221.514 451.141C221.524 449.436 220.672 448.332 219.143 448.324C217.779 448.316 216.463 449.508 216.453 451.455C216.442 453.424 217.701 454.586 219.296 454.595ZM217.434 450.976C217.562 449.789 218.313 449.122 219.16 449.127C220.095 449.132 220.642 449.784 220.635 450.994L217.434 450.976ZM222.97 454.471L223.982 454.477L224.006 450.143C224.603 449.541 225.023 449.235 225.639 449.239C226.431 449.243 226.769 449.718 226.763 450.84L226.743 454.492L227.744 454.497L227.765 450.713C227.773 449.195 227.205 448.367 225.951 448.36C225.138 448.356 224.508 448.804 223.944 449.373L223.922 449.372L223.828 448.503L223.003 448.499L222.97 454.471ZM232.033 454.663C232.748 454.667 233.432 454.385 233.974 453.926L233.537 453.242C233.161 453.57 232.676 453.831 232.126 453.828C231.026 453.822 230.283 452.905 230.29 451.53C230.298 450.155 231.095 449.235 232.184 449.241C232.646 449.244 233.03 449.455 233.369 449.765L233.879 449.107C233.463 448.731 232.925 448.398 232.144 448.394C230.604 448.386 229.267 449.533 229.256 451.524C229.246 453.504 230.45 454.655 232.033 454.663ZM235.375 457.113C236.563 457.119 237.195 456.22 237.619 455.057L239.898 448.59L238.919 448.585L237.824 451.89C237.667 452.428 237.487 453.032 237.33 453.581L237.275 453.581C237.069 453.019 236.875 452.413 236.691 451.884L235.499 448.566L234.454 448.56L236.819 454.557L236.685 455.008C236.428 455.743 236.007 456.291 235.336 456.287C235.171 456.286 234.995 456.23 234.874 456.186L234.672 456.988C234.859 457.066 235.1 457.111 235.375 457.113Z">
</path>
<path     fill="#00C48C"  d="M245.613 454.737C246.966 454.744 248.259 453.75 248.268 451.99C248.278 450.208 247.182 449.41 245.851 449.403C245.367 449.401 245.004 449.52 244.64 449.716L244.861 447.385L247.897 447.401L247.902 446.543L243.986 446.522L243.701 450.283L244.239 450.626C244.702 450.321 245.044 450.158 245.583 450.161C246.595 450.166 247.251 450.852 247.245 452.007C247.239 453.184 246.476 453.906 245.519 453.9C244.584 453.895 243.992 453.463 243.544 452.999L243.034 453.656C243.581 454.198 244.348 454.73 245.613 454.737ZM251.729 454.77C253.17 454.778 254.33 453.926 254.338 452.485C254.344 451.374 253.589 450.666 252.644 450.43L252.644 450.375C253.504 450.083 254.079 449.426 254.085 448.447C254.091 447.171 253.105 446.428 251.742 446.421C250.818 446.416 250.1 446.819 249.492 447.366L250.028 448.007C250.492 447.547 251.055 447.231 251.704 447.235C252.551 447.239 253.065 447.748 253.061 448.518C253.056 449.387 252.492 450.055 250.82 450.046L250.816 450.816C252.686 450.826 253.32 451.468 253.315 452.447C253.31 453.371 252.636 453.939 251.668 453.934C250.755 453.929 250.152 453.485 249.682 452.999L249.161 453.645C249.686 454.231 250.475 454.763 251.729 454.77ZM257.214 451.533C258.325 451.539 259.056 450.608 259.065 448.98C259.073 447.374 258.352 446.457 257.241 446.451C256.141 446.445 255.411 447.354 255.402 448.96C255.393 450.588 256.114 451.527 257.214 451.533ZM257.217 450.917C256.579 450.913 256.154 450.251 256.161 448.964C256.168 447.677 256.6 447.063 257.238 447.067C257.876 447.07 258.302 447.688 258.295 448.975C258.288 450.262 257.855 450.92 257.217 450.917ZM257.427 454.801L258.109 454.805L262.609 446.48L261.927 446.476L257.427 454.801ZM262.817 454.83C263.917 454.836 264.648 453.916 264.657 452.288C264.666 450.671 263.945 449.754 262.845 449.748C261.745 449.742 261.014 450.651 261.005 452.268C260.996 453.896 261.717 454.824 262.817 454.83ZM262.82 454.214C262.183 454.211 261.746 453.559 261.753 452.272C261.76 450.985 262.203 450.361 262.841 450.364C263.468 450.367 263.916 450.997 263.909 452.284C263.902 453.571 263.448 454.217 262.82 454.214Z">
</path>
</g>
<path    stroke="rgba(0, 196, 140, 1)" stroke-width="2" stroke-linejoin="round" stroke-linecap="round"  d="M285.08 454.384L279.233 448.362L273.32 454.32">
</path>
<g opacity="0.1">
<rect  x="74.949951171875" y="63" width="66" height="66" rx="10"    fill="#FFFFFF" >
</rect>
</g>
<g opacity="0.1">
<path     fill="#FFFFFF"  d="M523.95 592L688.95 592L688.95 635L523.95 635C518.427 635 513.95 630.523 513.95 625L513.95 602C513.95 596.477 518.427 592 523.95 592Z">
</path>
</g>
<g opacity="0.1">
<path     fill="#007CC3"  d="M688.95 592L722.95 592C728.473 592 732.95 596.477 732.95 602L732.95 625C732.95 630.523 728.473 635 722.95 635L688.95 635L688.95 592Z">
</path>
</g>
<defs>
<filter id="filter_1" x="37.9970703125" y="35.05122375488281" width="568.045654296875" height="598.8775177001953" filterUnits="userSpaceOnUse" color-interpolation-filters="sRGB">
<feFlood flood-opacity="0" result="feFloodId_1"/>
<feColorMatrix in="SourceAlpha" type="matrix" values="0 0 0 0 0 0 0 0 0 0 0 0 0 0 0 0 0 0 127 0" result="hardAlpha_1"/>
<feOffset dx="-20" dy="40"/>
<feGaussianBlur stdDeviation="50"/>
<feComposite in2="hardAlpha_1" operator="out"/>
<feColorMatrix type="matrix" values="0 0 0 0 0.34509803921568627 0 0 0 0 0.3607843137254902 0 0 0 0 0.3843137254901961 0 0 0 0.04 0"/>
<feBlend mode="" in2="feFloodId_1" result="dropShadow_1_1"/>
<feColorMatrix in="SourceAlpha" type="matrix" values="0 0 0 0 0 0 0 0 0 0 0 0 0 0 0 0 0 0 127 0" result="hardAlpha_1"/>
<feOffset dx="-15" dy="40"/>
<feGaussianBlur stdDeviation="50"/>
<feComposite in2="hardAlpha_1" operator="out"/>
<feColorMatrix type="matrix" values="0 0 0 0 0.25882352941176473 0 0 0 0 0 0 0 0 0 1 0 0 0 0.08 0"/>
<feBlend mode="" in2="feFloodId_1" result="dropShadow_1_1"/>
<feBlend mode="normal" in="SourceGraphic" in2="dropShadow_1_1" result="shape_1"/>
</filter>
<filter id="filter_24" x="368.949951171875" y="214" width="415" height="191" filterUnits="userSpaceOnUse" color-interpolation-filters="sRGB">
<feFlood flood-opacity="0" result="feFloodId_24"/>
<feColorMatrix in="SourceAlpha" type="matrix" values="0 0 0 0 0 0 0 0 0 0 0 0 0 0 0 0 0 0 127 0" result="hardAlpha_24"/>
<feOffset dx="0" dy="20"/>
<feGaussianBlur stdDeviation="15"/>
<feComposite in2="hardAlpha_24" operator="out"/>
<feColorMatrix type="matrix" values="0 0 0 0 0 0 0 0 0 0.48627450980392156 0 0 0 0 0.7647058823529411 0 0 0 0.25 0"/>
<feBlend mode="" in2="feFloodId_24" result="dropShadow_1_24"/>
<feBlend mode="normal" in="SourceGraphic" in2="dropShadow_1_24" result="shape_24"/>
</filter>
<filter id="filter_31" x="0" y="398.04869079589844" width="345.81982421875" height="231.6509552001953" filterUnits="userSpaceOnUse" color-interpolation-filters="sRGB">
<feFlood flood-opacity="0" result="feFloodId_31"/>
<feColorMatrix in="SourceAlpha" type="matrix" values="0 0 0 0 0 0 0 0 0 0 0 0 0 0 0 0 0 0 127 0" result="hardAlpha_31"/>
<feOffset dx="0" dy="20"/>
<feGaussianBlur stdDeviation="15"/>
<feComposite in2="hardAlpha_31" operator="out"/>
<feColorMatrix type="matrix" values="0 0 0 0 0 0 0 0 0 0.48627450980392156 0 0 0 0 0.7647058823529411 0 0 0 0.25 0"/>
<feBlend mode="" in2="feFloodId_31" result="dropShadow_1_31"/>
<feBlend mode="normal" in="SourceGraphic" in2="dropShadow_1_31" result="shape_31"/>
</filter>
</defs>
</svg>
